<svg width="52" height="51" viewBox="0 0 52 51" fill="none" xmlns="http://www.w3.org/2000/svg">
<path d="M41.1313 43.387C36.2266 44.5323 32.7218 44.6223 28.9678 46.0612C25.2226 47.5024 21.2338 50.2735 16.7174 50.8752C12.2011 51.477 7.16278 49.8904 3.88745 46.364C0.621066 42.8399 -0.879577 37.3665 0.529015 32.6304C1.94036 27.8848 6.26988 23.8786 10.639 22.2361C15.0055 20.6031 19.4177 21.3454 23.0489 17.5324C26.6684 13.7267 29.513 5.37723 33.9907 1.91488C38.4712 -1.55693 44.582 -0.132185 45.4536 4.77018C46.3163 9.67034 41.9342 18.0671 43.2646 24.158C44.5832 30.2561 51.6231 34.0507 51.9849 37.0518C52.3495 40.0435 46.036 42.2418 41.1313 43.387Z" fill="#F1E3FF"/>
</svg>
