<svg width="24" height="24" viewBox="0 0 24 24" fill="none" xmlns="http://www.w3.org/2000/svg">
<path d="M12.0002 8.99846V7.99805" stroke="#00BAAF" stroke-width="2" stroke-linecap="round" stroke-linejoin="round"/>
<path d="M12.0002 15V16.0004" stroke="#00BAAF" stroke-width="2" stroke-linecap="round" stroke-linejoin="round"/>
<path d="M10.2653 14.2851C10.5216 14.7259 10.9914 14.9988 11.5013 15.0032H12.5977C13.3069 15.0026 13.9045 14.4736 13.9912 13.7697C14.0778 13.0658 13.6263 12.4077 12.9384 12.2352L11.0634 11.7641C10.3755 11.5916 9.92398 10.9334 10.0106 10.2295C10.0973 9.52565 10.6949 8.99667 11.4041 8.99609H12.5005C13.0094 8.99962 13.4787 9.27121 13.7353 9.71067" stroke="#00BAAF" stroke-width="2" stroke-linecap="round" stroke-linejoin="round"/>
<path d="M11.9998 2.99609C16.9725 2.99609 21.0036 7.02721 21.0036 11.9998C21.0036 16.9725 16.9725 21.0036 11.9998 21.0036C7.02721 21.0036 2.99609 16.9725 2.99609 11.9998C2.99609 7.02721 7.02721 2.99609 11.9998 2.99609" stroke="#00BAAF" stroke-width="2" stroke-linecap="round" stroke-linejoin="round"/>
<path d="M11.9998 2.99609C16.9725 2.99609 21.0036 7.02721 21.0036 11.9998C21.0036 16.9725 16.9725 21.0036 11.9998 21.0036C7.02721 21.0036 2.99609 16.9725 2.99609 11.9998C2.99609 7.02721 7.02721 2.99609 11.9998 2.99609" stroke="#00BAAF" stroke-width="2" stroke-linecap="round" stroke-linejoin="round"/>
</svg>
