<svg width="547" height="633" fill="none" xmlns="http://www.w3.org/2000/svg"><g opacity=".5" clip-rule="evenodd" stroke-width="2"><path d="M146.51 81.984c30.748-5.411 58.762 13.242 88.458 22.878 28.117 9.123 57.912 12.737 80.407 31.914 26.11 22.259 58.283 49.613 55.324 83.795-2.988 34.508-47.562 47.052-69.009 74.25-18.806 23.848-20.823 61.759-48.356 74.578-27.869 12.976-61.041 1.505-89.359-10.461-25.665-10.846-41.822-33.796-61.664-53.358-23.378-23.047-56.988-39.183-64.595-71.118-8.076-33.902 3.802-70.749 24.044-99.118 19.876-27.857 51.047-47.429 84.75-53.36z" stroke="#939BE6"/><path d="M207.084 107.062c30.748-5.411 58.762 13.243 88.459 22.878 28.116 9.123 57.911 12.737 80.406 31.914 26.11 22.259 58.284 49.613 55.324 83.796-2.988 34.507-47.562 47.052-69.009 74.249-18.806 23.848-20.822 61.76-48.356 74.579-27.869 12.975-61.041 1.504-89.358-10.462-25.666-10.846-41.823-33.796-61.665-53.358-23.378-23.047-56.988-39.183-64.595-71.118-8.076-33.902 3.802-70.748 24.044-99.118 19.876-27.856 51.047-47.429 84.75-53.36z" stroke="#905AE2"/><path d="M253.662 190.172c30.748-5.411 58.762 13.242 88.459 22.878 28.116 9.122 57.911 12.737 80.406 31.913 26.11 22.259 58.284 49.614 55.324 83.796-2.988 34.507-47.561 47.052-69.009 74.249-18.806 23.848-20.822 61.76-48.355 74.579-27.87 12.975-61.042 1.505-89.359-10.462-25.666-10.846-41.823-33.795-61.665-53.357-23.377-23.047-56.988-39.184-64.595-71.118-8.076-33.902 3.803-70.749 24.044-99.119 19.876-27.856 51.047-47.428 84.75-53.359z" stroke="#939BE6"/><path d="M247.197 282.531c30.748-5.411 58.763 13.242 88.459 22.878 28.116 9.123 57.911 12.737 80.406 31.914 26.11 22.258 58.284 49.613 55.324 83.795-2.988 34.508-47.561 47.052-69.009 74.25-18.806 23.847-20.822 61.759-48.355 74.578-27.87 12.976-61.042 1.505-89.359-10.461-25.666-10.846-41.822-33.796-61.665-53.358-23.377-23.047-56.988-39.183-64.595-71.118-8.075-33.902 3.803-70.749 24.044-99.118 19.876-27.857 51.048-47.429 84.75-53.36z" stroke="#905AE2"/></g></svg>