<svg width="28" height="28" viewBox="0 0 28 28" fill="none" xmlns="http://www.w3.org/2000/svg">
<path d="M14 28C21.732 28 28 21.732 28 14C28 6.26801 21.732 0 14 0C6.26801 0 0 6.26801 0 14C0 21.732 6.26801 28 14 28Z" fill="#CDD2DC"/>
<path d="M17.2364 7.00291L15.5574 7C13.6711 7 12.4521 8.35233 12.4521 10.4454V12.034H10.764C10.6181 12.034 10.5 12.1619 10.5 12.3196V14.6213C10.5 14.779 10.6183 14.9067 10.764 14.9067H12.4521V20.7145C12.4521 20.8723 12.5703 21 12.7161 21H14.9187C15.0646 21 15.1827 20.8721 15.1827 20.7145V14.9067H17.1565C17.3024 14.9067 17.4205 14.779 17.4205 14.6213L17.4213 12.3196C17.4213 12.2439 17.3935 12.1713 17.344 12.1177C17.2946 12.0641 17.2272 12.034 17.1572 12.034H15.1827V10.6873C15.1827 10.0401 15.3253 9.7115 16.1051 9.7115L17.2361 9.71107C17.3819 9.71107 17.5 9.58319 17.5 9.4256V7.28838C17.5 7.13094 17.382 7.0032 17.2364 7.00291Z" fill="white"/>
</svg>
