<svg width="28" height="28" viewBox="0 0 28 28" fill="none" xmlns="http://www.w3.org/2000/svg">
<path d="M14 28C21.732 28 28 21.732 28 14C28 6.26801 21.732 0 14 0C6.26801 0 0 6.26801 0 14C0 21.732 6.26801 28 14 28Z" fill="#C2B2D9"/>
<path fill-rule="evenodd" clip-rule="evenodd" d="M10.2362 7C9.3377 7 8.75 7.61676 8.75 8.42782C8.75 9.2212 9.32069 9.85668 10.2013 9.85668H10.2189C11.1348 9.85668 11.7044 9.22132 11.7044 8.42782C11.6871 7.61676 11.1348 7 10.2362 7ZM21 14.5105V19.25H18.3744V14.8279C18.3744 13.717 17.9947 12.9589 17.0443 12.9589C16.3188 12.9589 15.8871 13.4698 15.6971 13.964C15.6279 14.1407 15.61 14.3867 15.61 14.634V19.25H12.9836C12.9836 19.25 13.019 11.7604 12.9836 10.9844H15.6098V12.156C15.6073 12.1602 15.6044 12.1645 15.6015 12.1687C15.5983 12.1735 15.5952 12.1783 15.5925 12.1827H15.6098V12.156C15.9587 11.5936 16.5818 10.7902 17.9766 10.7902C19.7046 10.7902 21 11.9716 21 14.5105ZM11.5314 19.25H8.90599V10.9844H11.5314V19.25Z" fill="#330081"/>
</svg>
