<svg width="28" height="28" viewBox="0 0 28 28" fill="none" xmlns="http://www.w3.org/2000/svg">
<path d="M14 28C21.732 28 28 21.732 28 14C28 6.26801 21.732 0 14 0C6.26801 0 0 6.26801 0 14C0 21.732 6.26801 28 14 28Z" fill="#CDD2DC"/>
<path d="M21.875 10.8673C21.3597 11.0781 20.8068 11.2211 20.2259 11.2849C20.8191 10.957 21.2731 10.4368 21.4883 9.81885C20.9319 10.1226 20.3178 10.3431 19.6634 10.4626C19.1394 9.94649 18.394 9.625 17.5673 9.625C15.9812 9.625 14.6952 10.8124 14.6952 12.276C14.6952 12.4836 14.7206 12.6864 14.7696 12.8803C12.383 12.7696 10.2668 11.7139 8.85043 10.1096C8.60284 10.5006 8.46199 10.9562 8.46199 11.4424C8.46199 12.3625 8.9694 13.1743 9.73927 13.6492C9.2686 13.6347 8.82593 13.5151 8.43839 13.3164V13.3495C8.43839 14.6339 9.42871 15.7057 10.7418 15.9497C10.5012 16.0095 10.2475 16.0426 9.98509 16.0426C9.79964 16.0426 9.62029 16.0256 9.44444 15.9933C9.81011 17.0474 10.8704 17.814 12.1267 17.835C11.1443 18.5458 9.90548 18.9683 8.55999 18.9683C8.32817 18.9683 8.09982 18.9554 7.875 18.9319C9.14614 19.6856 10.6552 20.125 12.2772 20.125C17.5603 20.125 20.4482 16.0846 20.4482 12.5806L20.4385 12.2373C21.0028 11.8657 21.4909 11.3988 21.875 10.8673Z" fill="white"/>
</svg>
