<svg width="28" height="28" viewBox="0 0 28 28" fill="none" xmlns="http://www.w3.org/2000/svg">
<path d="M14 28C21.732 28 28 21.732 28 14C28 6.26801 21.732 0 14 0C6.26801 0 0 6.26801 0 14C0 21.732 6.26801 28 14 28Z" fill="#C2B2D9"/>
<path fill-rule="evenodd" clip-rule="evenodd" d="M19.463 9.22349C20.0641 9.38904 20.5435 9.88571 20.7033 10.5085C21 11.6438 21 14.001 21 14.001C21 14.001 21 16.3661 20.7033 17.4934C20.5435 18.1162 20.0641 18.6129 19.463 18.7785C18.9241 18.9308 16.5055 19.2485 14.0693 19.25C11.5869 19.2514 9.08609 18.9336 8.53696 18.7785C7.93587 18.6129 7.45652 18.1162 7.29674 17.4934C7 16.3582 7 14.001 7 14.001C7 14.001 7 11.6438 7.28913 10.5164C7.44891 9.8936 7.92826 9.39693 8.52935 9.23137C9.07407 9.07744 11.5412 8.75178 14.0058 8.75001C16.464 8.74824 18.9197 9.06995 19.463 9.22349ZM16.237 14.001L12.6 11.8251V16.1769L16.237 14.001Z" fill="#330081"/>
</svg>
