<svg width="120" height="112" viewBox="0 0 120 112" fill="none" xmlns="http://www.w3.org/2000/svg">
<rect x="20.1172" y="99.25" width="11.5" height="34.5" rx="5.75" transform="rotate(-90 20.1172 99.25)" fill="#330081" stroke="#330081" stroke-width="1.5"/>
<rect x="62.3672" y="92" width="12" height="50" rx="6" transform="rotate(90 62.3672 92)" fill="#905AE2"/>
<path d="M67.5027 62.4392C66.1372 60.9026 66.2342 58.5606 67.7219 57.1421C69.2097 55.7236 71.5537 55.7384 73.0235 57.1755L110.092 93.4199C112.373 95.65 112.35 99.3268 110.041 101.528C107.732 103.729 104.059 103.577 101.94 101.193L67.5027 62.4392Z" fill="#330081" stroke="#330081" stroke-width="1.5"/>
<rect x="32.3867" y="58.0488" width="53.7266" height="25.4494" rx="8.77664" transform="rotate(-43.6355 32.3867 58.0488)" fill="#00CECE"/>
<rect x="31.3065" y="64.0214" width="8.39701" height="18.294" rx="4.1985" transform="rotate(-43.6355 31.3065 64.0214)" fill="white" stroke="#4650D4" stroke-width="1.5"/>
<rect x="71.2127" y="25.9745" width="8.39701" height="18.294" rx="4.1985" transform="rotate(-43.6355 71.2127 25.9745)" fill="white" stroke="#4650D4" stroke-width="1.5"/>
<rect x="30.4041" y="55.3944" width="12.6386" height="32.4326" rx="4.25" transform="rotate(-43.6355 30.4041 55.3944)" fill="white" stroke="#4650D4" stroke-width="1.5"/>
<rect x="59.1697" y="27.6854" width="12.6386" height="32.4326" rx="4.25" transform="rotate(-43.6355 59.1697 27.6854)" fill="white" stroke="#4650D4" stroke-width="1.5"/>
<path d="M15.3672 30L27.3545 41.9951" stroke="#4650D4" stroke-width="1.5" stroke-linecap="round" stroke-linejoin="round"/>
<path d="M28.125 28.4551L31.5452 37.852" stroke="#4650D4" stroke-width="1.5" stroke-linecap="round" stroke-linejoin="round"/>
<path d="M13.8203 42.7578L23.2172 46.178" stroke="#4650D4" stroke-width="1.5" stroke-linecap="round" stroke-linejoin="round"/>
</svg>
