<svg width="105" height="87" viewBox="0 0 105 87" fill="none" xmlns="http://www.w3.org/2000/svg">
<rect x="12.1172" y="82.25" width="11.5" height="34.5" rx="5.75" transform="rotate(-90 12.1172 82.25)" fill="#330081" stroke="#330081" stroke-width="1.5"/>
<rect x="54.3672" y="75" width="12" height="50" rx="6" transform="rotate(90 54.3672 75)" fill="#905AE2"/>
<path d="M59.5027 45.4392C58.1372 43.9026 58.2342 41.5606 59.7219 40.1421C61.2097 38.7236 63.5537 38.7384 65.0235 40.1755L102.092 76.4199C104.373 78.65 104.35 82.3268 102.041 84.528C99.7324 86.7291 96.0586 86.577 93.9398 84.1926L59.5027 45.4392Z" fill="#330081" stroke="#330081" stroke-width="1.5"/>
<rect x="24.3867" y="41.0488" width="53.7266" height="25.4494" rx="8.77664" transform="rotate(-43.6355 24.3867 41.0488)" fill="#00CECE"/>
<rect x="23.3065" y="47.0214" width="8.39701" height="18.294" rx="4.1985" transform="rotate(-43.6355 23.3065 47.0214)" fill="white" stroke="#4650D4" stroke-width="1.5"/>
<rect x="63.2127" y="8.97448" width="8.39701" height="18.294" rx="4.1985" transform="rotate(-43.6355 63.2127 8.97448)" fill="white" stroke="#4650D4" stroke-width="1.5"/>
<rect x="22.4041" y="38.3944" width="12.6386" height="32.4326" rx="4.25" transform="rotate(-43.6355 22.4041 38.3944)" fill="white" stroke="#4650D4" stroke-width="1.5"/>
<rect x="51.1697" y="10.6854" width="12.6386" height="32.4326" rx="4.25" transform="rotate(-43.6355 51.1697 10.6854)" fill="white" stroke="#4650D4" stroke-width="1.5"/>
<path d="M7.36719 13L19.3545 24.9951" stroke="#4650D4" stroke-width="1.5" stroke-linecap="round" stroke-linejoin="round"/>
<path d="M20.125 11.4551L23.5452 20.852" stroke="#4650D4" stroke-width="1.5" stroke-linecap="round" stroke-linejoin="round"/>
<path d="M5.82031 25.7578L15.2172 29.178" stroke="#4650D4" stroke-width="1.5" stroke-linecap="round" stroke-linejoin="round"/>
</svg>
