<svg width="80" height="79" viewBox="0 0 80 79" fill="none" xmlns="http://www.w3.org/2000/svg">
<path d="M4.06801 31.1744C5.70429 24.5126 9.16033 18.4368 14.0501 13.6257C18.9399 8.81458 25.071 5.45756 31.7584 3.92957" stroke="#4650D4" stroke-width="1.5" stroke-linecap="round" stroke-linejoin="round"/>
<path d="M75.932 31.1744C74.2957 24.5126 70.8397 18.4368 65.9499 13.6257C61.0601 8.81458 54.929 5.45756 48.2416 3.92957" stroke="#4650D4" stroke-width="1.5" stroke-linecap="round" stroke-linejoin="round"/>
<path d="M4.06801 48.8256C5.70429 55.4874 9.16033 61.5632 14.0501 66.3743C18.9399 71.1854 25.071 74.5424 31.7584 76.0704" stroke="#4650D4" stroke-width="1.5" stroke-linecap="round" stroke-linejoin="round"/>
<path d="M75.932 48.8256C74.2957 55.4874 70.8397 61.5632 65.9499 66.3743C61.0601 71.1854 54.929 74.5424 48.2416 76.0704" stroke="#4650D4" stroke-width="1.5" stroke-linecap="round" stroke-linejoin="round"/>
<circle cx="40" cy="3" r="3" fill="#905AE2"/>
<circle cx="40" cy="76" r="3" fill="#905AE2"/>
<circle cx="3.5" cy="39.5" r="3" transform="rotate(-90 3.5 39.5)" fill="#905AE2"/>
<circle cx="76.5" cy="39.5" r="3" transform="rotate(-90 76.5 39.5)" fill="#905AE2"/>
<path d="M57.504 44.6355V26.8392C57.504 26.0363 57.0238 25.3112 56.2846 24.9978L40.7807 18.4247C40.2818 18.2132 39.7183 18.2132 39.2194 18.4247L23.7154 24.9978C22.9762 25.3112 22.4961 26.0363 22.4961 26.8392V44.6355C22.4961 49.0422 24.6631 53.1761 28.311 55.7285L38.8535 63.1048C39.542 63.5866 40.4581 63.5866 41.1466 63.1048L51.6891 55.7285C55.337 53.1761 57.504 49.0422 57.504 44.6355Z" stroke="#330081" stroke-width="1.5" stroke-linecap="round" stroke-linejoin="round"/>
<path d="M52.0288 43.5439V31.4788C52.0288 30.6806 51.5542 29.9589 50.8214 29.6425L40.7914 25.3129C40.2855 25.0945 39.712 25.0945 39.2061 25.3129L29.1761 29.6425C28.4433 29.9589 27.9688 30.6806 27.9688 31.4788V43.5439C27.9688 46.6275 29.4581 49.5203 31.9652 51.3064L38.8383 56.2028C39.5328 56.6976 40.4647 56.6976 41.1592 56.2028L48.0324 51.3064C50.5395 49.5203 52.0288 46.6275 52.0288 43.5439Z" fill="#00CECE"/>
<path d="M45.5176 37.1348L38.6731 44.1037L34.5664 39.9223" stroke="white" stroke-width="2" stroke-linecap="round" stroke-linejoin="round"/>
</svg>
