<svg width="120" height="112" viewBox="0 0 120 112" fill="none" xmlns="http://www.w3.org/2000/svg">
<path d="M14.068 51.1744C15.7043 44.5126 19.1603 38.4368 24.0501 33.6257C28.9399 28.8146 35.071 25.4576 41.7584 23.9296" stroke="#4650D4" stroke-width="1.5" stroke-linecap="round" stroke-linejoin="round"/>
<path d="M85.932 51.1744C84.2957 44.5126 80.8397 38.4368 75.9499 33.6257C71.0601 28.8146 64.929 25.4576 58.2416 23.9296" stroke="#4650D4" stroke-width="1.5" stroke-linecap="round" stroke-linejoin="round"/>
<path d="M14.068 68.8256C15.7043 75.4874 19.1603 81.5632 24.0501 86.3743C28.9399 91.1854 35.071 94.5424 41.7584 96.0704" stroke="#4650D4" stroke-width="1.5" stroke-linecap="round" stroke-linejoin="round"/>
<path d="M85.932 68.8256C84.2957 75.4874 80.8397 81.5632 75.9499 86.3743C71.0601 91.1854 64.929 94.5424 58.2416 96.0704" stroke="#4650D4" stroke-width="1.5" stroke-linecap="round" stroke-linejoin="round"/>
<circle cx="50" cy="23" r="3" fill="#905AE2"/>
<circle cx="50" cy="96" r="3" fill="#905AE2"/>
<circle cx="13.5" cy="59.5" r="3" transform="rotate(-90 13.5 59.5)" fill="#905AE2"/>
<circle cx="86.5" cy="59.5" r="3" transform="rotate(-90 86.5 59.5)" fill="#905AE2"/>
<path d="M67.504 64.6355V46.8392C67.504 46.0363 67.0238 45.3112 66.2846 44.9978L50.7807 38.4247C50.2818 38.2132 49.7183 38.2132 49.2194 38.4247L33.7154 44.9978C32.9762 45.3112 32.4961 46.0363 32.4961 46.8392V64.6355C32.4961 69.0422 34.6631 73.1761 38.311 75.7285L48.8535 83.1048C49.542 83.5866 50.4581 83.5866 51.1466 83.1048L61.6891 75.7285C65.337 73.1761 67.504 69.0422 67.504 64.6355Z" stroke="#330081" stroke-width="1.5" stroke-linecap="round" stroke-linejoin="round"/>
<path d="M62.0288 63.5439V51.4788C62.0288 50.6806 61.5542 49.9589 60.8214 49.6425L50.7914 45.3129C50.2855 45.0945 49.712 45.0945 49.2061 45.3129L39.1761 49.6425C38.4433 49.9589 37.9688 50.6806 37.9688 51.4788V63.5439C37.9688 66.6275 39.4581 69.5203 41.9652 71.3064L48.8383 76.2028C49.5328 76.6976 50.4647 76.6976 51.1592 76.2028L58.0324 71.3064C60.5395 69.5203 62.0288 66.6275 62.0288 63.5439Z" fill="#00CECE"/>
<path d="M55.5176 57.1348L48.6731 64.1037L44.5664 59.9223" stroke="white" stroke-width="2" stroke-linecap="round" stroke-linejoin="round"/>
</svg>
