<svg width="86" height="101" viewBox="0 0 86 101" fill="none" xmlns="http://www.w3.org/2000/svg">
<path d="M53.3979 31.5889L41.9188 43.068C41.727 43.2598 41.8123 43.5897 42.0783 43.6622L70.0414 51.2885C70.1654 51.3223 70.2965 51.2873 70.3865 51.1973L81.8602 39.7236C82.0534 39.5303 81.966 39.2002 81.7019 39.1282L53.7388 31.5019C53.6104 31.4669 53.4847 31.5021 53.3979 31.5889Z" fill="white" stroke="#4650D4" stroke-width="1.5" stroke-linecap="round" stroke-linejoin="round"/>
<path d="M31.5317 31.5889L43.0108 43.068C43.2027 43.2598 43.1174 43.5897 42.8513 43.6622L14.8883 51.2885C14.7643 51.3223 14.6332 51.2873 14.5432 51.1973L3.06953 39.7236C2.87626 39.5303 2.96373 39.2002 3.22782 39.1282L31.1909 31.5019C31.3192 31.4669 31.445 31.5021 31.5317 31.5889Z" fill="white" stroke="#4650D4" stroke-width="1.5" stroke-linecap="round" stroke-linejoin="round"/>
<path d="M42.8849 43.4444V59.7913L13.329 51.4991L13.7274 50.848L42.4358 43.1004C42.6622 43.0393 42.8849 43.2099 42.8849 43.4444Z" fill="#F1EFFF" stroke="#4650D4" stroke-width="1.5" stroke-linecap="round" stroke-linejoin="round"/>
<path d="M42.25 38.6891V60.0078L71.8716 51.61L71.4511 50.8771L42.7486 38.3626C42.5133 38.26 42.25 38.4324 42.25 38.6891Z" fill="#F1EFFF" stroke="#4650D4" stroke-width="1.5" stroke-linecap="round" stroke-linejoin="round"/>
<rect x="6.12109" y="8.72461" width="33" height="30" rx="6" transform="rotate(-15 6.12109 8.72461)" fill="#00CECE"/>
<path d="M24.0578 19.4139L22.9886 17.9736L19.8126 18.8246L19.6416 20.5973L17.4856 21.1749L18.7293 12.046L20.6534 11.5304L26.2601 18.8238L24.0578 19.4139ZM20.2435 13.9883L19.9551 17.0844L22.0183 16.5316L20.2435 13.9883Z" fill="white"/>
<path d="M31.2039 17.4991L31.002 16.7457L30.9788 16.7519C30.872 17.0953 30.6665 17.3947 30.3623 17.6501C30.0637 17.8958 29.7212 18.0704 29.3348 18.1739C28.9021 18.2898 28.4929 18.3084 28.1074 18.2295C27.7218 18.1506 27.372 18.0041 27.0579 17.7901C26.7495 17.5663 26.4838 17.2855 26.2607 16.9477C26.0377 16.6099 25.8724 16.2401 25.7647 15.8383C25.657 15.4365 25.6164 15.0374 25.6427 14.6411C25.6747 14.235 25.7693 13.8618 25.9266 13.5215C26.0916 13.1791 26.3185 12.8823 26.6073 12.631C26.9038 12.3776 27.2607 12.195 27.678 12.0832C28.103 11.9693 28.4841 11.9541 28.8212 12.0377C29.1583 12.1213 29.4339 12.238 29.6479 12.3877L29.6711 12.3815L28.7052 8.77664L30.6061 8.26728L32.9541 17.0302L31.2039 17.4991ZM30.3579 14.62C30.3082 14.4345 30.2248 14.2623 30.1076 14.1032C29.9981 13.942 29.863 13.8084 29.7021 13.7025C29.5489 13.5944 29.3759 13.5207 29.1831 13.4812C28.9903 13.4418 28.7858 13.4511 28.5694 13.509C28.3453 13.5691 28.1596 13.6644 28.0124 13.7949C27.8652 13.9255 27.7523 14.0758 27.6736 14.246C27.5929 14.4084 27.5454 14.5868 27.5313 14.7811C27.5248 14.9733 27.5464 15.1621 27.5961 15.3476C27.6458 15.5331 27.7225 15.7113 27.8263 15.8822C27.9357 16.0434 28.0671 16.178 28.2202 16.286C28.3734 16.3941 28.5464 16.4678 28.7392 16.5073C28.932 16.5467 29.1404 16.5364 29.3645 16.4764C29.5809 16.4184 29.7627 16.3241 29.9099 16.1936C30.0571 16.063 30.17 15.9127 30.2487 15.7425C30.3351 15.5703 30.3853 15.387 30.3995 15.1927C30.4215 14.9964 30.4076 14.8055 30.3579 14.62Z" fill="white"/>
<path d="M18.4745 25.225C18.3562 25.1131 18.2113 25.036 18.0398 24.9936C17.867 24.9461 17.6878 24.9471 17.5023 24.9968C17.4199 25.0189 17.3403 25.0513 17.2633 25.094C17.1851 25.1315 17.118 25.1799 17.062 25.2391C17.0099 25.2917 16.9715 25.3544 16.9468 25.4273C16.9259 25.4936 16.9272 25.5706 16.9507 25.6581C16.9921 25.8127 17.0927 25.91 17.2525 25.95C17.4109 25.9848 17.6375 25.9959 17.9323 25.9832C18.1185 25.9775 18.2939 25.9829 18.4584 25.9995C18.623 26.0162 18.7711 26.0538 18.9028 26.1124C19.0382 26.1644 19.1527 26.2414 19.2463 26.3434C19.3398 26.4453 19.408 26.5761 19.4508 26.7358C19.5088 26.9522 19.5166 27.1461 19.4742 27.3176C19.4318 27.489 19.3542 27.6424 19.2413 27.7775C19.1322 27.9061 18.9956 28.0145 18.8315 28.1027C18.6674 28.1908 18.4926 28.2597 18.3071 28.3094C18.0289 28.384 17.7414 28.403 17.4445 28.3666C17.1528 28.3288 16.8897 28.2227 16.6552 28.0481L17.0549 27.4689C17.1914 27.5869 17.3578 27.6721 17.554 27.7244C17.7554 27.7753 17.9592 27.7732 18.1652 27.718C18.2579 27.6931 18.3435 27.662 18.4217 27.6244C18.5038 27.5803 18.5728 27.5287 18.6287 27.4696C18.6898 27.409 18.732 27.3398 18.7552 27.2617C18.7785 27.1837 18.7763 27.0932 18.7487 26.9902C18.7032 26.8202 18.5869 26.716 18.4 26.6778C18.2182 26.6382 17.9605 26.6244 17.627 26.6365C17.495 26.6387 17.3592 26.6364 17.2193 26.6297C17.0833 26.6165 16.9534 26.585 16.8296 26.5354C16.7059 26.4857 16.5953 26.4132 16.498 26.3178C16.4044 26.2159 16.3349 26.0799 16.2893 25.9099C16.2369 25.7141 16.2306 25.5364 16.2707 25.3766C16.3144 25.2102 16.389 25.066 16.4943 24.9439C16.5982 24.8167 16.7271 24.7104 16.8809 24.625C17.0334 24.5345 17.1971 24.4657 17.3723 24.4188C17.635 24.3484 17.9013 24.3323 18.171 24.3704C18.4459 24.4072 18.6765 24.5055 18.8629 24.6654L18.4745 25.225Z" fill="white"/>
<path d="M22.7666 24.6961C22.7228 24.5532 22.6611 24.4262 22.5816 24.315C22.5059 24.1972 22.4118 24.1037 22.2994 24.0345C22.1921 23.9638 22.0672 23.92 21.9246 23.903C21.7858 23.8795 21.6314 23.8905 21.4614 23.936C21.3068 23.9774 21.1676 24.0451 21.0437 24.139C20.9235 24.2264 20.8244 24.3303 20.7462 24.4507C20.6732 24.5696 20.6204 24.7025 20.588 24.8492C20.5593 24.9894 20.5591 25.133 20.5874 25.28L22.7666 24.6961ZM23.5794 24.793C23.5904 24.8343 23.6014 24.8755 23.6125 24.9167C23.6235 24.9579 23.632 24.9998 23.6379 25.0424L20.7324 25.8209C20.7789 25.9741 20.8518 26.1119 20.9509 26.2345C21.0537 26.3505 21.173 26.4455 21.3088 26.5195C21.4432 26.5884 21.5876 26.6326 21.7419 26.652C21.9013 26.67 22.0609 26.6576 22.2206 26.6148C22.4678 26.5485 22.6671 26.4372 22.8185 26.2807C22.9698 26.1242 23.0762 25.9549 23.1379 25.7727L23.7576 26.0456C23.6309 26.3556 23.4501 26.6084 23.2154 26.8038C22.9844 26.9927 22.7066 27.1306 22.3821 27.2175C22.1039 27.2921 21.8339 27.3147 21.5721 27.2855C21.3102 27.2563 21.0722 27.182 20.8581 27.0627C20.6425 26.9383 20.454 26.7707 20.2927 26.5599C20.1313 26.3492 20.0119 26.0995 19.9346 25.8111C19.8587 25.5277 19.8354 25.2551 19.8646 24.9933C19.8976 24.725 19.9763 24.483 20.1008 24.2675C20.2252 24.0519 20.391 23.8667 20.5979 23.7119C20.8035 23.5519 21.0403 23.436 21.3081 23.3642C21.576 23.2924 21.8299 23.2713 22.0697 23.3009C22.3147 23.3291 22.534 23.4057 22.7276 23.5305C22.9263 23.6539 23.0986 23.8231 23.2445 24.038C23.3891 24.2477 23.5007 24.4994 23.5794 24.793Z" fill="white"/>
<path d="M24.3223 23.509C24.296 23.4111 24.2597 23.2856 24.2131 23.1324C24.1665 22.9793 24.1222 22.8448 24.0802 22.7291L24.7679 22.5448C24.8031 22.6348 24.8398 22.7409 24.8781 22.8632C24.915 22.9803 24.9438 23.0775 24.9645 23.1547L24.9876 23.1485C25.0327 22.9045 25.1359 22.6919 25.2971 22.5107C25.4621 22.3229 25.6683 22.1959 25.9156 22.1296C26.0289 22.0993 26.127 22.084 26.2098 22.0839L26.359 22.7645C26.249 22.7664 26.1348 22.7832 26.0163 22.8149C25.8412 22.8618 25.6982 22.936 25.5873 23.0375C25.4751 23.1339 25.3897 23.2478 25.3311 23.3795C25.2777 23.5098 25.2497 23.6525 25.2471 23.8078C25.2432 23.958 25.2619 24.1103 25.3033 24.2649L25.8189 26.189L25.0925 26.3836L24.3223 23.509Z" fill="white"/>
<path d="M29.6154 25.1717L28.8272 25.3829L26.3544 22.1197L27.158 21.9044L29.0045 24.4989L29.0199 24.4948L29.3294 21.3226L30.1022 21.1155L29.6154 25.1717Z" fill="white"/>
<path d="M33.8898 21.7156C33.846 21.5728 33.7844 21.4457 33.7049 21.3345C33.6291 21.2168 33.5351 21.1233 33.4226 21.054C33.3154 20.9834 33.1904 20.9395 33.0478 20.9225C32.909 20.899 32.7546 20.91 32.5846 20.9556C32.4301 20.997 32.2908 21.0646 32.1669 21.1586C32.0468 21.246 31.9476 21.3499 31.8694 21.4702C31.7964 21.5891 31.7437 21.722 31.7112 21.8687C31.6825 22.0089 31.6823 22.1525 31.7107 22.2995L33.8898 21.7156ZM34.7026 21.8126C34.7136 21.8538 34.7247 21.895 34.7357 21.9362C34.7468 21.9774 34.7552 22.0193 34.7611 22.0619L31.8556 22.8405C31.9022 22.9936 31.975 23.1315 32.0741 23.254C32.177 23.37 32.2963 23.465 32.4321 23.5391C32.5665 23.608 32.7108 23.6521 32.8651 23.6715C33.0245 23.6895 33.1841 23.6771 33.3438 23.6343C33.5911 23.5681 33.7904 23.4567 33.9417 23.3002C34.093 23.1437 34.1995 22.9744 34.2611 22.7922L34.8808 23.0651C34.7541 23.3752 34.5734 23.6279 34.3386 23.8233C34.1076 24.0122 33.8299 24.1501 33.5053 24.2371C33.2271 24.3116 32.9571 24.3343 32.6953 24.305C32.4335 24.2758 32.1955 24.2015 31.9813 24.0822C31.7657 23.9578 31.5773 23.7902 31.4159 23.5794C31.2545 23.3687 31.1352 23.1191 31.0579 22.8306C30.982 22.5473 30.9586 22.2747 30.9878 22.0129C31.0209 21.7445 31.0996 21.5025 31.224 21.287C31.3485 21.0714 31.5142 20.8862 31.7212 20.7314C31.9268 20.5714 32.1635 20.4555 32.4314 20.3837C32.6993 20.3119 32.9531 20.2909 33.193 20.3205C33.4379 20.3487 33.6572 20.4252 33.8508 20.55C34.0495 20.6735 34.2218 20.8426 34.3678 21.0575C34.5123 21.2673 34.6239 21.5189 34.7026 21.8126Z" fill="white"/>
<path d="M35.4455 20.5286C35.4193 20.4307 35.3829 20.3051 35.3363 20.152C35.2898 19.9988 35.2455 19.8644 35.2034 19.7486L35.8911 19.5644C35.9263 19.6543 35.963 19.7604 36.0013 19.8827C36.0382 19.9998 36.067 20.097 36.0877 20.1743L36.1109 20.1681C36.1559 19.9241 36.2591 19.7115 36.4203 19.5302C36.5854 19.3425 36.7915 19.2154 37.0388 19.1492C37.1521 19.1188 37.2502 19.1036 37.333 19.1035L37.4822 19.784C37.3723 19.7859 37.2581 19.8027 37.1396 19.8344C36.9644 19.8814 36.8214 19.9556 36.7106 20.0571C36.5984 20.1534 36.513 20.2674 36.4544 20.399C36.4009 20.5293 36.3729 20.6721 36.3704 20.8274C36.3664 20.9775 36.3852 21.1298 36.4266 21.2844L36.9421 23.2085L36.2158 23.4031L35.4455 20.5286Z" fill="white"/>
<rect x="42.4453" y="19" width="33" height="30" rx="6" transform="rotate(15 42.4453 19)" fill="#905AE2"/>
<path d="M51.2274 36.8417C51.0349 37.5603 50.7329 38.1461 50.3217 38.5991C49.9202 39.0465 49.4537 39.3811 48.9221 39.6031C48.4004 39.8194 47.8434 39.9352 47.2513 39.9505C46.6612 39.958 46.0842 39.8862 45.5201 39.7351L42.46 38.9151L44.6589 30.7086L47.6263 31.5037C48.2058 31.659 48.759 31.8818 49.2858 32.172C49.8147 32.4546 50.257 32.8132 50.6125 33.2481C50.9702 33.6752 51.2138 34.1877 51.3435 34.7857C51.4732 35.3836 51.4345 36.0689 51.2274 36.8417ZM49.1642 36.2888C49.2884 35.8252 49.3136 35.422 49.2398 35.0792C49.1758 34.7308 49.0402 34.4335 48.8328 34.1874C48.6352 33.9357 48.3845 33.7278 48.0806 33.5635C47.7845 33.4014 47.4665 33.2747 47.1264 33.1836L46.1412 32.9196L44.8554 37.7183L45.7943 37.9699C46.1497 38.0652 46.5001 38.1176 46.8453 38.1273C47.2004 38.1313 47.5264 38.0738 47.8234 37.9546C48.1281 37.8374 48.3953 37.644 48.6249 37.3742C48.8623 37.1065 49.042 36.7447 49.1642 36.2888Z" fill="white"/>
<path d="M57.6307 36.4703C57.5187 36.2084 57.3401 35.9783 57.0951 35.7802C56.8598 35.5763 56.6147 35.4402 56.3597 35.3719C56.2283 35.3367 56.09 35.3121 55.9447 35.298C55.8071 35.286 55.6749 35.3002 55.5481 35.3408C55.4233 35.3736 55.3078 35.4338 55.2015 35.5213C55.1051 35.6031 55.0351 35.7251 54.9916 35.8874C54.9544 36.0265 54.9503 36.1496 54.9796 36.2569C55.0166 36.3662 55.0798 36.4701 55.1694 36.5686C55.2666 36.6692 55.3843 36.7711 55.5223 36.8744C55.6623 36.9699 55.8207 37.0744 55.9973 37.188C56.2506 37.3553 56.5124 37.5372 56.7827 37.7339C57.0551 37.9228 57.2901 38.1432 57.4877 38.3949C57.6853 38.6466 57.8279 38.9333 57.9157 39.2549C58.0055 39.5689 57.9955 39.9306 57.8858 40.3402C57.7595 40.8116 57.5609 41.1973 57.29 41.4974C57.0289 41.7919 56.7215 42.0118 56.3678 42.1572C56.0141 42.3026 55.6334 42.3787 55.2258 42.3854C54.8182 42.3921 54.4134 42.3417 54.0116 42.234C53.4243 42.0766 52.8833 41.824 52.3885 41.4761C51.8957 41.1204 51.5185 40.7046 51.2568 40.2287L52.909 39.2551C53.0437 39.5562 53.2505 39.8353 53.5295 40.0923C53.8183 40.3436 54.125 40.5127 54.4495 40.5997C54.5963 40.639 54.7434 40.6619 54.8908 40.6682C55.0382 40.6746 55.1714 40.6564 55.2905 40.6138C55.4173 40.5732 55.5272 40.5033 55.6201 40.4039C55.7129 40.3046 55.7811 40.1738 55.8246 40.0115C55.866 39.857 55.8626 39.7152 55.8143 39.5864C55.766 39.4575 55.6798 39.3309 55.5558 39.2065C55.4416 39.0765 55.2856 38.9478 55.0878 38.8202C54.8999 38.6871 54.6821 38.5417 54.4344 38.3843C54.1944 38.2289 53.9625 38.059 53.7385 37.8748C53.5223 37.6926 53.3376 37.4858 53.1843 37.2542C53.0408 37.017 52.9414 36.7543 52.8861 36.4662C52.8406 36.1724 52.8675 35.84 52.9669 35.4691C53.0891 35.0132 53.2863 34.6478 53.5588 34.3729C53.8312 34.0981 54.146 33.8967 54.5033 33.7688C54.8606 33.6409 55.241 33.5814 55.6445 33.5901C56.05 33.5911 56.446 33.6433 56.8324 33.7469C57.296 33.8711 57.7446 34.0824 58.1781 34.3808C58.6194 34.6812 58.9771 35.0463 59.2513 35.4759L57.6307 36.4703Z" fill="white"/>
<path d="M66.4945 39.2677C66.3661 39.7468 66.1686 40.1287 65.9018 40.4134C65.6371 40.6903 65.3272 40.8889 64.972 41.009C64.6168 41.1292 64.2297 41.1828 63.8107 41.17C63.3918 41.1571 62.9698 41.0937 62.5448 40.9798L61.5596 40.7158L60.7303 43.8107L58.7482 43.2796L60.9472 35.0731L63.9609 35.8806C64.409 36.0007 64.8139 36.1588 65.1754 36.3551C65.5467 36.5457 65.8484 36.7798 66.0805 37.0573C66.3224 37.3291 66.481 37.6491 66.5563 38.0171C66.6414 38.3795 66.6208 38.7964 66.4945 39.2677ZM64.5093 38.7482C64.5611 38.5551 64.5649 38.3863 64.5208 38.2419C64.4766 38.0976 64.3982 37.9731 64.2854 37.8683C64.1727 37.7636 64.0345 37.6768 63.8707 37.6081C63.7146 37.5414 63.5477 37.4843 63.37 37.4367L62.5006 37.2037L61.982 39.1394L62.8165 39.3631C63.002 39.4128 63.1839 39.4449 63.3621 39.4596C63.5404 39.4742 63.7056 39.4605 63.8577 39.4184C64.0175 39.3784 64.1526 39.3069 64.263 39.204C64.3755 39.0934 64.4576 38.9414 64.5093 38.7482Z" fill="white"/>
<path d="M10.75 89.2058V64.2424C10.75 64.1595 10.7789 64.0791 10.8318 64.0153L19.1235 53.9954C19.2082 53.893 19.3428 53.8463 19.4727 53.8742L41.9685 58.7016C42.1327 58.7368 42.25 58.882 42.25 59.0499V96.5968C42.25 96.8271 42.0346 96.9969 41.8106 96.9432L11.0231 89.5522C10.8629 89.5137 10.75 89.3705 10.75 89.2058Z" fill="white" stroke="#4650D4" stroke-width="1.5" stroke-linecap="round" stroke-linejoin="round"/>
<path d="M74.25 89.2027V64.2424C74.25 64.1595 74.2211 64.0791 74.1682 64.0153L65.8745 53.9929C65.7902 53.891 65.6563 53.8442 65.5268 53.8714L42.533 58.7051C42.3681 58.7398 42.25 58.8852 42.25 59.0537V96.6016C42.25 96.8315 42.4645 97.0012 42.6882 96.9483L73.9757 89.5494C74.1365 89.5114 74.25 89.3679 74.25 89.2027Z" fill="white" stroke="#4650D4" stroke-width="1.5" stroke-linecap="round" stroke-linejoin="round"/>
<path d="M13.355 50.9932L1.87587 62.4723C1.684 62.6641 1.76937 62.994 2.03537 63.0665L29.9985 70.6928C30.1224 70.7266 30.2535 70.6916 30.3435 70.6016L41.8172 59.1279C42.0105 58.9346 41.923 58.6045 41.6589 58.5325L13.6958 50.9062C13.5675 50.8712 13.4417 50.9064 13.355 50.9932Z" fill="white" stroke="#4650D4" stroke-width="1.5" stroke-linecap="round" stroke-linejoin="round"/>
<path d="M54.0816 70.6049L42.1772 58.7005L71.4779 50.9024C71.6057 50.8684 71.7304 50.9037 71.8167 50.99L83.2893 62.4626C83.4819 62.6552 83.3951 62.9863 83.1277 63.0575L54.4245 70.6966C54.3011 70.7294 54.171 70.6942 54.0816 70.6049Z" fill="white" stroke="#4650D4" stroke-width="1.5" stroke-linecap="round" stroke-linejoin="round"/>
</svg>
