<svg width="120" height="112" viewBox="0 0 120 112" fill="none" xmlns="http://www.w3.org/2000/svg">
<g clip-path="url(#clip0)">
<path d="M57.3979 42.5889L45.9188 54.068C45.727 54.2598 45.8123 54.5897 46.0783 54.6622L74.0414 62.2885C74.1654 62.3223 74.2965 62.2873 74.3865 62.1973L85.8602 50.7236C86.0534 50.5303 85.966 50.2002 85.7019 50.1282L57.7388 42.5019C57.6104 42.4669 57.4847 42.5021 57.3979 42.5889Z" fill="white" stroke="#4650D4" stroke-width="1.5" stroke-linecap="round" stroke-linejoin="round"/>
<path d="M35.5317 42.5889L47.0108 54.068C47.2027 54.2598 47.1174 54.5897 46.8513 54.6622L18.8883 62.2885C18.7643 62.3223 18.6332 62.2873 18.5432 62.1973L7.06953 50.7236C6.87626 50.5303 6.96373 50.2002 7.22782 50.1282L35.1909 42.5019C35.3192 42.4669 35.445 42.5021 35.5317 42.5889Z" fill="white" stroke="#4650D4" stroke-width="1.5" stroke-linecap="round" stroke-linejoin="round"/>
<path d="M46.8849 54.4444V70.7913L17.329 62.4991L17.7274 61.848L46.4358 54.1004C46.6622 54.0393 46.8849 54.2099 46.8849 54.4444Z" fill="#F1EFFF" stroke="#4650D4" stroke-width="1.5" stroke-linecap="round" stroke-linejoin="round"/>
<path d="M46.25 49.6891V71.0078L75.8716 62.61L75.4511 61.8771L46.7486 49.3626C46.5133 49.26 46.25 49.4324 46.25 49.6891Z" fill="#F1EFFF" stroke="#4650D4" stroke-width="1.5" stroke-linecap="round" stroke-linejoin="round"/>
<rect x="10.1211" y="19.7246" width="33" height="30" rx="6" transform="rotate(-15 10.1211 19.7246)" fill="#00CECE"/>
<path d="M28.0578 30.4139L26.9886 28.9736L23.8126 29.8246L23.6416 31.5973L21.4856 32.1749L22.7293 23.046L24.6534 22.5304L30.2601 29.8238L28.0578 30.4139ZM24.2435 24.9883L23.9551 28.0844L26.0183 27.5316L24.2435 24.9883Z" fill="white"/>
<path d="M35.2039 28.4991L35.002 27.7457L34.9788 27.7519C34.872 28.0953 34.6665 28.3947 34.3623 28.6501C34.0637 28.8958 33.7212 29.0704 33.3348 29.1739C32.9021 29.2898 32.4929 29.3084 32.1074 29.2295C31.7218 29.1506 31.372 29.0041 31.0579 28.7901C30.7495 28.5663 30.4838 28.2855 30.2607 27.9477C30.0377 27.6099 29.8724 27.2401 29.7647 26.8383C29.657 26.4365 29.6164 26.0374 29.6427 25.6411C29.6747 25.235 29.7693 24.8618 29.9266 24.5215C30.0916 24.1791 30.3185 23.8823 30.6073 23.631C30.9038 23.3776 31.2607 23.195 31.678 23.0832C32.103 22.9693 32.4841 22.9541 32.8212 23.0377C33.1583 23.1213 33.4339 23.238 33.6479 23.3877L33.6711 23.3815L32.7052 19.7766L34.6061 19.2673L36.9541 28.0302L35.2039 28.4991ZM34.3579 25.62C34.3082 25.4345 34.2248 25.2623 34.1076 25.1032C33.9981 24.942 33.863 24.8084 33.7021 24.7025C33.5489 24.5944 33.3759 24.5207 33.1831 24.4812C32.9903 24.4418 32.7858 24.4511 32.5694 24.509C32.3453 24.5691 32.1596 24.6644 32.0124 24.7949C31.8652 24.9255 31.7523 25.0758 31.6736 25.246C31.5929 25.4084 31.5454 25.5868 31.5313 25.7811C31.5248 25.9733 31.5464 26.1621 31.5961 26.3476C31.6458 26.5331 31.7225 26.7113 31.8263 26.8822C31.9357 27.0434 32.0671 27.178 32.2202 27.286C32.3734 27.3941 32.5464 27.4678 32.7392 27.5073C32.932 27.5467 33.1404 27.5364 33.3645 27.4764C33.5809 27.4184 33.7627 27.3241 33.9099 27.1936C34.0571 27.063 34.17 26.9127 34.2487 26.7425C34.3351 26.5703 34.3853 26.387 34.3995 26.1927C34.4215 25.9964 34.4076 25.8055 34.3579 25.62Z" fill="white"/>
<path d="M22.4745 36.225C22.3562 36.1131 22.2113 36.036 22.0398 35.9936C21.867 35.9461 21.6878 35.9471 21.5023 35.9968C21.4199 36.0189 21.3403 36.0513 21.2633 36.094C21.1851 36.1315 21.118 36.1799 21.062 36.2391C21.0099 36.2917 20.9715 36.3544 20.9468 36.4273C20.9259 36.4936 20.9272 36.5706 20.9507 36.6581C20.9921 36.8127 21.0927 36.91 21.2525 36.95C21.4109 36.9848 21.6375 36.9959 21.9323 36.9832C22.1185 36.9775 22.2939 36.9829 22.4584 36.9995C22.623 37.0162 22.7711 37.0538 22.9028 37.1124C23.0382 37.1644 23.1527 37.2414 23.2463 37.3434C23.3398 37.4453 23.408 37.5761 23.4508 37.7358C23.5088 37.9522 23.5166 38.1461 23.4742 38.3176C23.4318 38.489 23.3542 38.6424 23.2413 38.7775C23.1322 38.9061 22.9956 39.0145 22.8315 39.1027C22.6674 39.1908 22.4926 39.2597 22.3071 39.3094C22.0289 39.384 21.7414 39.403 21.4445 39.3666C21.1528 39.3288 20.8897 39.2227 20.6552 39.0481L21.0549 38.4689C21.1914 38.5869 21.3578 38.6721 21.554 38.7244C21.7554 38.7753 21.9592 38.7732 22.1652 38.718C22.2579 38.6931 22.3435 38.662 22.4217 38.6244C22.5038 38.5803 22.5728 38.5287 22.6287 38.4696C22.6898 38.409 22.732 38.3398 22.7552 38.2617C22.7785 38.1837 22.7763 38.0932 22.7487 37.9902C22.7032 37.8202 22.5869 37.716 22.4 37.6778C22.2182 37.6382 21.9605 37.6244 21.627 37.6365C21.495 37.6387 21.3592 37.6364 21.2193 37.6297C21.0833 37.6165 20.9534 37.585 20.8296 37.5354C20.7059 37.4857 20.5953 37.4132 20.498 37.3178C20.4044 37.2159 20.3349 37.0799 20.2893 36.9099C20.2369 36.7141 20.2306 36.5364 20.2707 36.3766C20.3144 36.2102 20.389 36.066 20.4943 35.9439C20.5982 35.8167 20.7271 35.7104 20.8809 35.625C21.0334 35.5345 21.1971 35.4657 21.3723 35.4188C21.635 35.3484 21.9013 35.3323 22.171 35.3704C22.4459 35.4072 22.6765 35.5055 22.8629 35.6654L22.4745 36.225Z" fill="white"/>
<path d="M26.7666 35.6961C26.7228 35.5532 26.6611 35.4262 26.5816 35.315C26.5059 35.1972 26.4118 35.1037 26.2994 35.0345C26.1921 34.9638 26.0672 34.92 25.9246 34.903C25.7858 34.8795 25.6314 34.8905 25.4614 34.936C25.3068 34.9774 25.1676 35.0451 25.0437 35.139C24.9235 35.2264 24.8244 35.3303 24.7462 35.4507C24.6732 35.5696 24.6204 35.7025 24.588 35.8492C24.5593 35.9894 24.5591 36.133 24.5874 36.28L26.7666 35.6961ZM27.5794 35.793C27.5904 35.8343 27.6014 35.8755 27.6125 35.9167C27.6235 35.9579 27.632 35.9998 27.6379 36.0424L24.7324 36.8209C24.7789 36.9741 24.8518 37.1119 24.9509 37.2345C25.0537 37.3505 25.173 37.4455 25.3088 37.5195C25.4432 37.5884 25.5876 37.6326 25.7419 37.652C25.9013 37.67 26.0609 37.6576 26.2206 37.6148C26.4678 37.5485 26.6671 37.4372 26.8185 37.2807C26.9698 37.1242 27.0762 36.9549 27.1379 36.7727L27.7576 37.0456C27.6309 37.3556 27.4501 37.6084 27.2154 37.8038C26.9844 37.9927 26.7066 38.1306 26.3821 38.2175C26.1039 38.2921 25.8339 38.3147 25.5721 38.2855C25.3102 38.2563 25.0722 38.182 24.8581 38.0627C24.6425 37.9383 24.454 37.7707 24.2927 37.5599C24.1313 37.3492 24.0119 37.0995 23.9346 36.8111C23.8587 36.5277 23.8354 36.2551 23.8646 35.9933C23.8976 35.725 23.9763 35.483 24.1008 35.2675C24.2252 35.0519 24.391 34.8667 24.5979 34.7119C24.8035 34.5519 25.0403 34.436 25.3081 34.3642C25.576 34.2924 25.8299 34.2713 26.0697 34.3009C26.3147 34.3291 26.534 34.4057 26.7276 34.5305C26.9263 34.6539 27.0986 34.8231 27.2445 35.038C27.3891 35.2477 27.5007 35.4994 27.5794 35.793Z" fill="white"/>
<path d="M28.3223 34.509C28.296 34.4111 28.2597 34.2856 28.2131 34.1324C28.1665 33.9793 28.1222 33.8448 28.0802 33.7291L28.7679 33.5448C28.8031 33.6348 28.8398 33.7409 28.8781 33.8632C28.915 33.9803 28.9438 34.0775 28.9645 34.1547L28.9876 34.1485C29.0327 33.9045 29.1359 33.6919 29.2971 33.5107C29.4621 33.3229 29.6683 33.1959 29.9156 33.1296C30.0289 33.0993 30.127 33.084 30.2098 33.0839L30.359 33.7645C30.249 33.7664 30.1348 33.7832 30.0163 33.8149C29.8412 33.8618 29.6982 33.936 29.5873 34.0375C29.4751 34.1339 29.3897 34.2478 29.3311 34.3795C29.2777 34.5098 29.2497 34.6525 29.2471 34.8078C29.2432 34.958 29.2619 35.1103 29.3033 35.2649L29.8189 37.189L29.0925 37.3836L28.3223 34.509Z" fill="white"/>
<path d="M33.6154 36.1717L32.8272 36.3829L30.3544 33.1197L31.158 32.9044L33.0045 35.4989L33.0199 35.4948L33.3294 32.3226L34.1022 32.1155L33.6154 36.1717Z" fill="white"/>
<path d="M37.8898 32.7156C37.846 32.5728 37.7844 32.4457 37.7049 32.3345C37.6291 32.2168 37.5351 32.1233 37.4226 32.054C37.3154 31.9834 37.1904 31.9395 37.0478 31.9225C36.909 31.899 36.7546 31.91 36.5846 31.9556C36.4301 31.997 36.2908 32.0646 36.1669 32.1586C36.0468 32.246 35.9476 32.3499 35.8694 32.4702C35.7964 32.5891 35.7437 32.722 35.7112 32.8687C35.6825 33.0089 35.6823 33.1525 35.7107 33.2995L37.8898 32.7156ZM38.7026 32.8126C38.7136 32.8538 38.7247 32.895 38.7357 32.9362C38.7468 32.9774 38.7552 33.0193 38.7611 33.0619L35.8556 33.8405C35.9022 33.9936 35.975 34.1315 36.0741 34.254C36.177 34.37 36.2963 34.465 36.4321 34.5391C36.5665 34.608 36.7108 34.6521 36.8651 34.6715C37.0245 34.6895 37.1841 34.6771 37.3438 34.6343C37.5911 34.5681 37.7904 34.4567 37.9417 34.3002C38.093 34.1437 38.1995 33.9744 38.2611 33.7922L38.8808 34.0651C38.7541 34.3752 38.5734 34.6279 38.3386 34.8233C38.1076 35.0122 37.8299 35.1501 37.5053 35.2371C37.2271 35.3116 36.9571 35.3343 36.6953 35.305C36.4335 35.2758 36.1955 35.2015 35.9813 35.0822C35.7657 34.9578 35.5773 34.7902 35.4159 34.5794C35.2545 34.3687 35.1352 34.1191 35.0579 33.8306C34.982 33.5473 34.9586 33.2747 34.9878 33.0129C35.0209 32.7445 35.0996 32.5025 35.224 32.287C35.3485 32.0714 35.5142 31.8862 35.7212 31.7314C35.9268 31.5714 36.1635 31.4555 36.4314 31.3837C36.6993 31.3119 36.9531 31.2909 37.193 31.3205C37.4379 31.3487 37.6572 31.4252 37.8508 31.55C38.0495 31.6735 38.2218 31.8426 38.3678 32.0575C38.5123 32.2673 38.6239 32.5189 38.7026 32.8126Z" fill="white"/>
<path d="M39.4455 31.5286C39.4193 31.4307 39.3829 31.3051 39.3363 31.152C39.2898 30.9988 39.2455 30.8644 39.2034 30.7486L39.8911 30.5644C39.9263 30.6543 39.963 30.7604 40.0013 30.8827C40.0382 30.9998 40.067 31.097 40.0877 31.1743L40.1109 31.1681C40.1559 30.9241 40.2591 30.7115 40.4203 30.5302C40.5854 30.3425 40.7915 30.2154 41.0388 30.1492C41.1521 30.1188 41.2502 30.1036 41.333 30.1035L41.4822 30.784C41.3723 30.7859 41.2581 30.8027 41.1396 30.8344C40.9644 30.8814 40.8214 30.9556 40.7106 31.0571C40.5984 31.1534 40.513 31.2674 40.4544 31.399C40.4009 31.5293 40.3729 31.6721 40.3704 31.8274C40.3664 31.9775 40.3852 32.1298 40.4266 32.2844L40.9421 34.2085L40.2158 34.4031L39.4455 31.5286Z" fill="white"/>
<rect x="46.4453" y="30" width="33" height="30" rx="6" transform="rotate(15 46.4453 30)" fill="#905AE2"/>
<path d="M55.2274 47.8417C55.0349 48.5603 54.7329 49.1461 54.3217 49.5991C53.9202 50.0465 53.4537 50.3811 52.9221 50.6031C52.4004 50.8194 51.8434 50.9352 51.2513 50.9505C50.6612 50.958 50.0842 50.8862 49.5201 50.7351L46.46 49.9151L48.6589 41.7086L51.6263 42.5037C52.2058 42.659 52.759 42.8818 53.2858 43.172C53.8147 43.4546 54.257 43.8132 54.6125 44.2481C54.9702 44.6752 55.2138 45.1877 55.3435 45.7857C55.4732 46.3836 55.4345 47.0689 55.2274 47.8417ZM53.1642 47.2888C53.2884 46.8252 53.3136 46.422 53.2398 46.0792C53.1758 45.7308 53.0402 45.4335 52.8328 45.1874C52.6352 44.9357 52.3845 44.7278 52.0806 44.5635C51.7845 44.4014 51.4665 44.2747 51.1264 44.1836L50.1412 43.9196L48.8554 48.7183L49.7943 48.9699C50.1497 49.0652 50.5001 49.1176 50.8453 49.1273C51.2004 49.1313 51.5264 49.0738 51.8234 48.9546C52.1281 48.8374 52.3953 48.644 52.6249 48.3742C52.8623 48.1065 53.042 47.7447 53.1642 47.2888Z" fill="white"/>
<path d="M61.6307 47.4703C61.5187 47.2084 61.3401 46.9783 61.0951 46.7802C60.8598 46.5763 60.6147 46.4402 60.3597 46.3719C60.2283 46.3367 60.09 46.3121 59.9447 46.298C59.8071 46.286 59.6749 46.3002 59.5481 46.3408C59.4233 46.3736 59.3078 46.4338 59.2015 46.5213C59.1051 46.6031 59.0351 46.7251 58.9916 46.8874C58.9544 47.0265 58.9503 47.1496 58.9796 47.2569C59.0166 47.3662 59.0798 47.4701 59.1694 47.5686C59.2666 47.6692 59.3843 47.7711 59.5223 47.8744C59.6623 47.9699 59.8207 48.0744 59.9973 48.188C60.2506 48.3553 60.5124 48.5372 60.7827 48.7339C61.0551 48.9228 61.2901 49.1432 61.4877 49.3949C61.6853 49.6466 61.8279 49.9333 61.9157 50.2549C62.0055 50.5689 61.9955 50.9306 61.8858 51.3402C61.7595 51.8116 61.5609 52.1973 61.29 52.4974C61.0289 52.7919 60.7215 53.0118 60.3678 53.1572C60.0141 53.3026 59.6334 53.3787 59.2258 53.3854C58.8182 53.3921 58.4134 53.3417 58.0116 53.234C57.4243 53.0766 56.8833 52.824 56.3885 52.4761C55.8957 52.1204 55.5185 51.7046 55.2568 51.2287L56.909 50.2551C57.0437 50.5562 57.2505 50.8353 57.5295 51.0923C57.8183 51.3436 58.125 51.5127 58.4495 51.5997C58.5963 51.639 58.7434 51.6619 58.8908 51.6682C59.0382 51.6746 59.1714 51.6564 59.2905 51.6138C59.4173 51.5732 59.5272 51.5033 59.6201 51.4039C59.7129 51.3046 59.7811 51.1738 59.8246 51.0115C59.866 50.857 59.8626 50.7152 59.8143 50.5864C59.766 50.4575 59.6798 50.3309 59.5558 50.2065C59.4416 50.0765 59.2856 49.9478 59.0878 49.8202C58.8999 49.6871 58.6821 49.5417 58.4344 49.3843C58.1944 49.2289 57.9625 49.059 57.7385 48.8748C57.5223 48.6926 57.3376 48.4858 57.1843 48.2542C57.0408 48.017 56.9414 47.7543 56.8861 47.4662C56.8406 47.1724 56.8675 46.84 56.9669 46.4691C57.0891 46.0132 57.2863 45.6478 57.5588 45.3729C57.8312 45.0981 58.146 44.8967 58.5033 44.7688C58.8606 44.6409 59.241 44.5814 59.6445 44.5901C60.05 44.5911 60.446 44.6433 60.8324 44.7469C61.296 44.8711 61.7446 45.0824 62.1781 45.3808C62.6194 45.6812 62.9771 46.0463 63.2513 46.4759L61.6307 47.4703Z" fill="white"/>
<path d="M70.4945 50.2677C70.3661 50.7468 70.1686 51.1287 69.9018 51.4134C69.6371 51.6903 69.3272 51.8889 68.972 52.009C68.6168 52.1292 68.2297 52.1828 67.8107 52.17C67.3918 52.1571 66.9698 52.0937 66.5448 51.9798L65.5596 51.7158L64.7303 54.8107L62.7482 54.2796L64.9472 46.0731L67.9609 46.8806C68.409 47.0007 68.8139 47.1588 69.1754 47.3551C69.5467 47.5457 69.8484 47.7798 70.0805 48.0573C70.3224 48.3291 70.481 48.6491 70.5563 49.0171C70.6414 49.3795 70.6208 49.7964 70.4945 50.2677ZM68.5093 49.7482C68.5611 49.5551 68.5649 49.3863 68.5208 49.2419C68.4766 49.0976 68.3982 48.9731 68.2854 48.8683C68.1727 48.7636 68.0345 48.6768 67.8707 48.6081C67.7146 48.5414 67.5477 48.4843 67.37 48.4367L66.5006 48.2037L65.982 50.1394L66.8165 50.3631C67.002 50.4128 67.1839 50.4449 67.3621 50.4596C67.5404 50.4742 67.7056 50.4605 67.8577 50.4184C68.0175 50.3784 68.1526 50.3069 68.263 50.204C68.3755 50.0934 68.4576 49.9414 68.5093 49.7482Z" fill="white"/>
<path d="M14.75 100.206V75.2424C14.75 75.1595 14.7789 75.0791 14.8318 75.0153L23.1235 64.9954C23.2082 64.893 23.3428 64.8463 23.4727 64.8742L45.9685 69.7016C46.1327 69.7368 46.25 69.882 46.25 70.0499V107.597C46.25 107.827 46.0346 107.997 45.8106 107.943L15.0231 100.552C14.8629 100.514 14.75 100.371 14.75 100.206Z" fill="white" stroke="#4650D4" stroke-width="1.5" stroke-linecap="round" stroke-linejoin="round"/>
<path d="M78.25 100.203V75.2424C78.25 75.1595 78.2211 75.0791 78.1682 75.0153L69.8745 64.9929C69.7902 64.891 69.6563 64.8442 69.5268 64.8714L46.533 69.7051C46.3681 69.7398 46.25 69.8852 46.25 70.0537V107.602C46.25 107.832 46.4645 108.001 46.6882 107.948L77.9757 100.549C78.1365 100.511 78.25 100.368 78.25 100.203Z" fill="white" stroke="#4650D4" stroke-width="1.5" stroke-linecap="round" stroke-linejoin="round"/>
<path d="M17.355 61.9932L5.87587 73.4723C5.684 73.6641 5.76937 73.994 6.03537 74.0665L33.9985 81.6928C34.1224 81.7266 34.2535 81.6916 34.3435 81.6016L45.8172 70.1279C46.0105 69.9346 45.923 69.6045 45.6589 69.5325L17.6958 61.9062C17.5675 61.8712 17.4417 61.9064 17.355 61.9932Z" fill="white" stroke="#4650D4" stroke-width="1.5" stroke-linecap="round" stroke-linejoin="round"/>
<path d="M58.0816 81.6049L46.1772 69.7005L75.4779 61.9024C75.6057 61.8684 75.7304 61.9037 75.8167 61.99L87.2893 73.4626C87.4819 73.6552 87.3951 73.9863 87.1277 74.0575L58.4245 81.6966C58.3011 81.7294 58.171 81.6942 58.0816 81.6049Z" fill="white" stroke="#4650D4" stroke-width="1.5" stroke-linecap="round" stroke-linejoin="round"/>
</g>
<defs>
<clipPath id="clip0">
<rect width="120" height="112" fill="white"/>
</clipPath>
</defs>
</svg>
