<svg width="110" height="85" viewBox="0 0 110 85" fill="none" xmlns="http://www.w3.org/2000/svg">
<path d="M0.75 10.75H87.25V79C87.25 81.8995 84.8995 84.25 82 84.25H6C3.10051 84.25 0.75 81.8995 0.75 79V10.75Z" fill="white" stroke="#4650D4" stroke-width="1.5"/>
<path d="M0.75 14C0.75 11.1005 3.10051 8.75 6 8.75H16C18.8995 8.75 21.25 11.1005 21.25 14V84.25H6C3.10051 84.25 0.75 81.8995 0.75 79V14Z" fill="white" stroke="#4650D4" stroke-width="1.5"/>
<rect x="6" y="23" width="10" height="1.5" rx="0.75" fill="#4650D4"/>
<rect x="6" y="28" width="10" height="1.5" rx="0.75" fill="#4650D4"/>
<rect x="6" y="33" width="10" height="1.5" rx="0.75" fill="#4650D4"/>
<rect x="32" y="28" width="36" height="36" rx="6" fill="#905AE2"/>
<path fill-rule="evenodd" clip-rule="evenodd" d="M47.8016 52.2216L48.2949 53.3311C48.5945 54.0059 49.2636 54.4406 50.0018 54.4406V54.4406C50.7401 54.4406 51.4092 54.0059 51.7088 53.3311L52.2021 52.2216C52.3778 51.8279 52.6732 51.4997 53.0462 51.2837V51.2837C53.4217 51.0671 53.856 50.9749 54.2871 51.0201L55.4941 51.1486C56.2282 51.2263 56.9391 50.8642 57.308 50.2248V50.2248C57.6774 49.5858 57.6355 48.7891 57.2011 48.1924L56.4864 47.2104C56.2319 46.8582 56.096 46.4342 56.0981 45.9996V45.9996C56.0981 45.5662 56.2353 45.144 56.4902 44.7935L57.2048 43.8115C57.6392 43.2148 57.6811 42.4181 57.3118 41.7791V41.7791C56.9429 41.1397 56.232 40.7776 55.4979 40.8553L54.2908 40.9838C53.8598 41.029 53.4254 40.9368 53.05 40.7202V40.7202C52.6762 40.503 52.3807 40.1731 52.2059 39.7776L51.7088 38.6681C51.4092 37.9934 50.7401 37.5586 50.0018 37.5586V37.5586C49.2636 37.5586 48.5945 37.9934 48.2949 38.6681L47.8016 39.7776C47.6268 40.1731 47.3313 40.503 46.9575 40.7202V40.7202C46.582 40.9368 46.1477 41.029 45.7166 40.9838L44.5058 40.8553C43.7717 40.7776 43.0608 41.1397 42.6919 41.7791V41.7791C42.3226 42.4181 42.3645 43.2148 42.7988 43.8115L43.5135 44.7935C43.7684 45.144 43.9056 45.5662 43.9056 45.9996V45.9996C43.9056 46.433 43.7684 46.8552 43.5135 47.2057L42.7988 48.1877C42.3645 48.7844 42.3226 49.5811 42.6919 50.2201V50.2201C43.0612 50.8591 43.7718 51.2211 44.5058 51.1439L45.7129 51.0154C46.1439 50.9702 46.5783 51.0624 46.9537 51.279V51.279C47.3289 51.4956 47.6258 51.8256 47.8016 52.2216V52.2216Z" stroke="white" stroke-width="2"/>
<path fill-rule="evenodd" clip-rule="evenodd" d="M50.0021 48.4796C51.3732 48.4796 52.4847 47.3684 52.4847 45.9976C52.4847 44.6268 51.3732 43.5156 50.0021 43.5156C48.631 43.5156 47.5195 44.6268 47.5195 45.9976C47.5195 47.3684 48.631 48.4796 50.0021 48.4796Z" stroke="white" stroke-width="2" stroke-linecap="round" stroke-linejoin="round"/>
<path d="M0 6C0 2.68629 2.68629 0 6 0H82C85.3137 0 88 2.68629 88 6V13H0V6Z" fill="#330081"/>
<circle cx="7.5" cy="6.5" r="1.5" fill="white"/>
<circle cx="13.5" cy="6.5" r="1.5" fill="white"/>
<circle cx="19.5" cy="6.5" r="1.5" fill="white"/>
<rect x="74" y="28" width="36" height="36" rx="6" fill="#00CECE"/>
<path fill-rule="evenodd" clip-rule="evenodd" d="M89.3984 40.7988V40.7988C89.3984 39.3626 90.5628 38.1973 92 38.1973V38.1973C93.4363 38.1973 94.6016 39.3616 94.6016 40.7988V40.7988C94.6016 42.2351 93.4372 43.4004 92 43.4004V43.4004C90.5628 43.3985 89.3984 42.2341 89.3984 40.7988Z" stroke="white" stroke-width="2" stroke-linecap="round" stroke-linejoin="round"/>
<path fill-rule="evenodd" clip-rule="evenodd" d="M83.0938 51.2012V51.2012C83.0938 49.7649 84.2581 48.5996 85.6953 48.5996V48.5996C87.1316 48.5996 88.2969 49.764 88.2969 51.2012V51.2012C88.2959 52.6374 87.1325 53.8027 85.6953 53.8027V53.8027C84.2581 53.8027 83.0938 52.6384 83.0938 51.2012Z" stroke="white" stroke-width="2" stroke-linecap="round" stroke-linejoin="round"/>
<path fill-rule="evenodd" clip-rule="evenodd" d="M95.7031 51.2012V51.2012C95.7031 49.7649 96.8675 48.5996 98.3047 48.5996V48.5996C99.7409 48.5996 100.906 49.764 100.906 51.2012V51.2012C100.906 52.6374 99.7419 53.8027 98.3047 53.8027V53.8027C96.8666 53.8027 95.7031 52.6384 95.7031 51.2012V51.2012Z" stroke="white" stroke-width="2" stroke-linecap="round" stroke-linejoin="round"/>
<path d="M88.7086 45.9258L86.8242 48.8695" stroke="white" stroke-width="2" stroke-linecap="round" stroke-linejoin="round"/>
<path d="M93.4062 42.9805L95.2906 45.9242" stroke="white" stroke-width="2" stroke-linecap="round" stroke-linejoin="round"/>
<path d="M95.7031 51.2031H92" stroke="white" stroke-width="2" stroke-linecap="round" stroke-linejoin="round"/>
</svg>
