<svg width="123" height="112" viewBox="0 0 123 112" fill="none" xmlns="http://www.w3.org/2000/svg">
<path d="M13.75 31.75H100.25V100C100.25 102.899 97.8995 105.25 95 105.25H19C16.1005 105.25 13.75 102.899 13.75 100V31.75Z" fill="white" stroke="#4650D4" stroke-width="1.5"/>
<path d="M13.75 35C13.75 32.1005 16.1005 29.75 19 29.75H29C31.8995 29.75 34.25 32.1005 34.25 35V105.25H19C16.1005 105.25 13.75 102.899 13.75 100V35Z" fill="white" stroke="#4650D4" stroke-width="1.5"/>
<rect x="19" y="44" width="10" height="1.5" rx="0.75" fill="#4650D4"/>
<rect x="19" y="49" width="10" height="1.5" rx="0.75" fill="#4650D4"/>
<rect x="19" y="54" width="10" height="1.5" rx="0.75" fill="#4650D4"/>
<rect x="45" y="49" width="36" height="36" rx="6" fill="#905AE2"/>
<path fill-rule="evenodd" clip-rule="evenodd" d="M60.8016 73.2216L61.2949 74.3311C61.5945 75.0059 62.2636 75.4406 63.0018 75.4406V75.4406C63.7401 75.4406 64.4092 75.0059 64.7088 74.3311L65.2021 73.2216C65.3778 72.8279 65.6732 72.4997 66.0462 72.2837V72.2837C66.4217 72.0671 66.856 71.9749 67.2871 72.0201L68.4941 72.1486C69.2282 72.2263 69.9391 71.8642 70.308 71.2248V71.2248C70.6774 70.5858 70.6355 69.7891 70.2011 69.1924L69.4864 68.2104C69.2319 67.8582 69.096 67.4342 69.0981 66.9996V66.9996C69.0981 66.5662 69.2353 66.144 69.4902 65.7935L70.2048 64.8115C70.6392 64.2148 70.6811 63.4181 70.3118 62.7791V62.7791C69.9429 62.1397 69.232 61.7776 68.4979 61.8553L67.2908 61.9838C66.8598 62.029 66.4254 61.9368 66.05 61.7202V61.7202C65.6762 61.503 65.3807 61.1731 65.2059 60.7776L64.7088 59.6681C64.4092 58.9934 63.7401 58.5586 63.0018 58.5586V58.5586C62.2636 58.5586 61.5945 58.9934 61.2949 59.6681L60.8016 60.7776C60.6268 61.1731 60.3313 61.503 59.9575 61.7202V61.7202C59.582 61.9368 59.1477 62.029 58.7166 61.9838L57.5058 61.8553C56.7717 61.7776 56.0608 62.1397 55.6919 62.7791V62.7791C55.3226 63.4181 55.3645 64.2148 55.7988 64.8115L56.5135 65.7935C56.7684 66.144 56.9056 66.5662 56.9056 66.9996V66.9996C56.9056 67.433 56.7684 67.8552 56.5135 68.2057L55.7988 69.1877C55.3645 69.7844 55.3226 70.5811 55.6919 71.2201V71.2201C56.0612 71.8591 56.7718 72.2211 57.5058 72.1439L58.7129 72.0154C59.1439 71.9702 59.5783 72.0624 59.9537 72.279V72.279C60.3289 72.4956 60.6258 72.8256 60.8016 73.2216V73.2216Z" stroke="white" stroke-width="2"/>
<path fill-rule="evenodd" clip-rule="evenodd" d="M63.0021 69.4796C64.3732 69.4796 65.4847 68.3684 65.4847 66.9976C65.4847 65.6268 64.3732 64.5156 63.0021 64.5156C61.631 64.5156 60.5195 65.6268 60.5195 66.9976C60.5195 68.3684 61.631 69.4796 63.0021 69.4796Z" stroke="white" stroke-width="2" stroke-linecap="round" stroke-linejoin="round"/>
<path d="M13 27C13 23.6863 15.6863 21 19 21H95C98.3137 21 101 23.6863 101 27V34H13V27Z" fill="#330081"/>
<circle cx="20.5" cy="27.5" r="1.5" fill="white"/>
<circle cx="26.5" cy="27.5" r="1.5" fill="white"/>
<circle cx="32.5" cy="27.5" r="1.5" fill="white"/>
<rect x="87" y="49" width="36" height="36" rx="6" fill="#00CECE"/>
<path fill-rule="evenodd" clip-rule="evenodd" d="M102.398 61.7988V61.7988C102.398 60.3626 103.563 59.1973 105 59.1973V59.1973C106.436 59.1973 107.602 60.3616 107.602 61.7988V61.7988C107.602 63.2351 106.437 64.4004 105 64.4004V64.4004C103.563 64.3985 102.398 63.2341 102.398 61.7988Z" stroke="white" stroke-width="2" stroke-linecap="round" stroke-linejoin="round"/>
<path fill-rule="evenodd" clip-rule="evenodd" d="M96.0938 72.2012V72.2012C96.0938 70.7649 97.2581 69.5996 98.6953 69.5996V69.5996C100.132 69.5996 101.297 70.764 101.297 72.2012V72.2012C101.296 73.6374 100.132 74.8027 98.6953 74.8027V74.8027C97.2581 74.8027 96.0938 73.6384 96.0938 72.2012Z" stroke="white" stroke-width="2" stroke-linecap="round" stroke-linejoin="round"/>
<path fill-rule="evenodd" clip-rule="evenodd" d="M108.703 72.2012V72.2012C108.703 70.7649 109.867 69.5996 111.305 69.5996V69.5996C112.741 69.5996 113.906 70.764 113.906 72.2012V72.2012C113.906 73.6374 112.742 74.8027 111.305 74.8027V74.8027C109.867 74.8027 108.703 73.6384 108.703 72.2012V72.2012Z" stroke="white" stroke-width="2" stroke-linecap="round" stroke-linejoin="round"/>
<path d="M101.709 66.9258L99.8242 69.8695" stroke="white" stroke-width="2" stroke-linecap="round" stroke-linejoin="round"/>
<path d="M106.406 63.9805L108.291 66.9242" stroke="white" stroke-width="2" stroke-linecap="round" stroke-linejoin="round"/>
<path d="M108.703 72.2031H105" stroke="white" stroke-width="2" stroke-linecap="round" stroke-linejoin="round"/>
</svg>
