<svg width="120" height="112" viewBox="0 0 120 112" fill="none" xmlns="http://www.w3.org/2000/svg">
<path d="M13.1172 32.75H99.6172V101C99.6172 103.899 97.2667 106.25 94.3672 106.25H18.3672C15.4677 106.25 13.1172 103.899 13.1172 101V32.75Z" fill="white" stroke="#4650D4" stroke-width="1.5"/>
<path d="M12.3672 28C12.3672 24.6863 15.0535 22 18.3672 22H94.3672C97.6809 22 100.367 24.6863 100.367 28V35H12.3672V28Z" fill="#330081"/>
<circle cx="19.8672" cy="28.5" r="1.5" fill="white"/>
<circle cx="25.8672" cy="28.5" r="1.5" fill="white"/>
<circle cx="31.8672" cy="28.5" r="1.5" fill="white"/>
<rect x="24.3672" y="45" width="35" height="24" rx="4" fill="#905AE2"/>
<rect x="66.1172" y="45.75" width="21.5" height="22.5" rx="3.25" fill="white" stroke="#4650D4" stroke-width="1.5"/>
<rect x="25.1172" y="74.75" width="20.5" height="20.5" rx="3.25" fill="white" stroke="#4650D4" stroke-width="1.5"/>
<rect x="52.3672" y="74" width="36" height="22" rx="4" fill="#00CECE"/>
<path d="M39.6294 58.9399C39.6294 59.3266 39.5527 59.6533 39.3994 59.9199C39.246 60.1799 39.0427 60.3899 38.7894 60.5499C38.536 60.7099 38.246 60.8266 37.9194 60.8999C37.5994 60.9666 37.2694 60.9999 36.9294 60.9999H34.1094V53.9199H36.9294C37.2027 53.9199 37.4827 53.9499 37.7694 54.0099C38.056 54.0633 38.316 54.1599 38.5494 54.2999C38.7827 54.4333 38.9727 54.6166 39.1194 54.8499C39.266 55.0833 39.3394 55.3799 39.3394 55.7399C39.3394 56.1333 39.2327 56.4599 39.0194 56.7199C38.806 56.9733 38.526 57.1566 38.1794 57.2699V57.2899C38.3794 57.3233 38.566 57.3866 38.7394 57.4799C38.9194 57.5666 39.0727 57.6799 39.1994 57.8199C39.3327 57.9599 39.436 58.1233 39.5094 58.3099C39.5894 58.4966 39.6294 58.7066 39.6294 58.9399ZM37.6894 55.9699C37.6894 55.7299 37.596 55.5566 37.4094 55.4499C37.2294 55.3366 36.9594 55.2799 36.5994 55.2799H35.7594V56.7399H36.6794C36.9994 56.7399 37.246 56.6766 37.4194 56.5499C37.5994 56.4166 37.6894 56.2233 37.6894 55.9699ZM37.9194 58.7799C37.9194 58.4866 37.8094 58.2833 37.5894 58.1699C37.3694 58.0566 37.076 57.9999 36.7094 57.9999H35.7594V59.6199H36.7194C36.8527 59.6199 36.9894 59.6099 37.1294 59.5899C37.276 59.5633 37.406 59.5199 37.5194 59.4599C37.6394 59.3999 37.736 59.3166 37.8094 59.2099C37.8827 59.0966 37.9194 58.9533 37.9194 58.7799Z" fill="white"/>
<path d="M40.9598 60.9999V53.9199H42.6798V60.9999H40.9598Z" fill="white"/>
<path d="M50.9534 57.4399C50.9534 58.0599 50.8367 58.5966 50.6034 59.0499C50.3767 59.4966 50.0734 59.8666 49.6934 60.1599C49.32 60.4466 48.8967 60.6599 48.4234 60.7999C47.95 60.9333 47.47 60.9999 46.9834 60.9999H44.3434V53.9199H46.9034C47.4034 53.9199 47.8967 53.9799 48.3834 54.0999C48.87 54.2133 49.3034 54.4066 49.6834 54.6799C50.0634 54.9466 50.37 55.3066 50.6034 55.7599C50.8367 56.2133 50.9534 56.7733 50.9534 57.4399ZM49.1734 57.4399C49.1734 57.0399 49.1067 56.7099 48.9734 56.4499C48.8467 56.1833 48.6734 55.9733 48.4534 55.8199C48.24 55.6599 47.9934 55.5466 47.7134 55.4799C47.44 55.4133 47.1567 55.3799 46.8634 55.3799H46.0134V59.5199H46.8234C47.13 59.5199 47.4234 59.4866 47.7034 59.4199C47.99 59.3466 48.24 59.2299 48.4534 59.0699C48.6734 58.9099 48.8467 58.6966 48.9734 58.4299C49.1067 58.1633 49.1734 57.8333 49.1734 57.4399Z" fill="white"/>
<path d="M67.3425 90.0003L65.8445 87.8583L64.3045 90.0003H61.6445L64.4305 86.3463L61.9105 83.0283H64.5845L65.8865 84.8903L67.2025 83.0283H69.7925L67.2865 86.3463L70.0445 90.0003H67.3425Z" fill="white"/>
<path d="M78.161 87.1163C78.161 87.6576 78.049 88.1289 77.825 88.5303C77.6104 88.9223 77.3257 89.2489 76.971 89.5103C76.6164 89.7623 76.215 89.9489 75.767 90.0703C75.3284 90.2009 74.8804 90.2663 74.423 90.2663C73.975 90.2663 73.5364 90.2149 73.107 90.1123C72.687 90.0096 72.2997 89.8556 71.945 89.6503C71.5997 89.4356 71.2964 89.1649 71.035 88.8383C70.7737 88.5023 70.5777 88.1009 70.447 87.6343L72.631 87.0603C72.7244 87.3869 72.9157 87.6763 73.205 87.9283C73.4944 88.1709 73.863 88.2923 74.311 88.2923C74.479 88.2923 74.647 88.2689 74.815 88.2223C74.9924 88.1756 75.1464 88.1056 75.277 88.0123C75.417 87.9096 75.529 87.7789 75.613 87.6203C75.7064 87.4616 75.753 87.2656 75.753 87.0323C75.753 86.7803 75.6924 86.5703 75.571 86.4023C75.459 86.2343 75.305 86.1036 75.109 86.0103C74.9224 85.9076 74.7077 85.8376 74.465 85.8003C74.2224 85.7536 73.9797 85.7303 73.737 85.7303H73.107V84.0083H73.793C74.017 84.0083 74.2317 83.9943 74.437 83.9663C74.6424 83.9289 74.8244 83.8683 74.983 83.7843C75.151 83.6909 75.2817 83.5696 75.375 83.4203C75.4777 83.2709 75.529 83.0749 75.529 82.8323C75.529 82.4776 75.403 82.2069 75.151 82.0203C74.899 81.8336 74.6097 81.7403 74.283 81.7403C73.947 81.7403 73.653 81.8429 73.401 82.0483C73.1584 82.2443 72.9997 82.5103 72.925 82.8463L70.741 82.3423C70.8624 81.9223 71.0444 81.5583 71.287 81.2503C71.5297 80.9329 71.8144 80.6716 72.141 80.4663C72.477 80.2516 72.841 80.0929 73.233 79.9903C73.625 79.8783 74.0264 79.8223 74.437 79.8223C74.8757 79.8223 75.3004 79.8783 75.711 79.9903C76.131 80.1023 76.5044 80.2749 76.831 80.5083C77.1577 80.7416 77.419 81.0356 77.615 81.3903C77.8204 81.7356 77.923 82.1463 77.923 82.6223C77.923 83.1729 77.7644 83.6396 77.447 84.0223C77.139 84.3956 76.7424 84.6476 76.257 84.7783V84.8203C76.537 84.8856 76.7937 84.9929 77.027 85.1423C77.2604 85.2823 77.461 85.4549 77.629 85.6603C77.797 85.8563 77.9277 86.0803 78.021 86.3323C78.1144 86.5749 78.161 86.8363 78.161 87.1163Z" fill="white"/>
</svg>
