<svg width="89" height="85" viewBox="0 0 89 85" fill="none" xmlns="http://www.w3.org/2000/svg">
<path d="M1.11719 10.75H87.6172V79C87.6172 81.8995 85.2667 84.25 82.3672 84.25H6.36719C3.46769 84.25 1.11719 81.8995 1.11719 79V10.75Z" fill="white" stroke="#4650D4" stroke-width="1.5"/>
<path d="M0.367188 6C0.367188 2.68629 3.05348 0 6.36719 0H82.3672C85.6809 0 88.3672 2.68629 88.3672 6V13H0.367188V6Z" fill="#330081"/>
<circle cx="7.86719" cy="6.5" r="1.5" fill="white"/>
<circle cx="13.8672" cy="6.5" r="1.5" fill="white"/>
<circle cx="19.8672" cy="6.5" r="1.5" fill="white"/>
<rect x="12.3672" y="23" width="35" height="24" rx="4" fill="#905AE2"/>
<rect x="54.1172" y="23.75" width="21.5" height="22.5" rx="3.25" fill="white" stroke="#4650D4" stroke-width="1.5"/>
<rect x="13.1172" y="52.75" width="20.5" height="20.5" rx="3.25" fill="white" stroke="#4650D4" stroke-width="1.5"/>
<rect x="40.3672" y="52" width="36" height="22" rx="4" fill="#00CECE"/>
<path d="M27.6294 36.9399C27.6294 37.3266 27.5527 37.6533 27.3994 37.9199C27.246 38.1799 27.0427 38.3899 26.7894 38.5499C26.536 38.7099 26.246 38.8266 25.9194 38.8999C25.5994 38.9666 25.2694 38.9999 24.9294 38.9999H22.1094V31.9199H24.9294C25.2027 31.9199 25.4827 31.9499 25.7694 32.0099C26.056 32.0633 26.316 32.1599 26.5494 32.2999C26.7827 32.4333 26.9727 32.6166 27.1194 32.8499C27.266 33.0833 27.3394 33.3799 27.3394 33.7399C27.3394 34.1333 27.2327 34.4599 27.0194 34.7199C26.806 34.9733 26.526 35.1566 26.1794 35.2699V35.2899C26.3794 35.3233 26.566 35.3866 26.7394 35.4799C26.9194 35.5666 27.0727 35.6799 27.1994 35.8199C27.3327 35.9599 27.436 36.1233 27.5094 36.3099C27.5894 36.4966 27.6294 36.7066 27.6294 36.9399ZM25.6894 33.9699C25.6894 33.7299 25.596 33.5566 25.4094 33.4499C25.2294 33.3366 24.9594 33.2799 24.5994 33.2799H23.7594V34.7399H24.6794C24.9994 34.7399 25.246 34.6766 25.4194 34.5499C25.5994 34.4166 25.6894 34.2233 25.6894 33.9699ZM25.9194 36.7799C25.9194 36.4866 25.8094 36.2833 25.5894 36.1699C25.3694 36.0566 25.076 35.9999 24.7094 35.9999H23.7594V37.6199H24.7194C24.8527 37.6199 24.9894 37.6099 25.1294 37.5899C25.276 37.5633 25.406 37.5199 25.5194 37.4599C25.6394 37.3999 25.736 37.3166 25.8094 37.2099C25.8827 37.0966 25.9194 36.9533 25.9194 36.7799Z" fill="white"/>
<path d="M28.9598 38.9999V31.9199H30.6798V38.9999H28.9598Z" fill="white"/>
<path d="M38.9534 35.4399C38.9534 36.0599 38.8367 36.5966 38.6034 37.0499C38.3767 37.4966 38.0734 37.8666 37.6934 38.1599C37.32 38.4466 36.8967 38.6599 36.4234 38.7999C35.95 38.9333 35.47 38.9999 34.9834 38.9999H32.3434V31.9199H34.9034C35.4034 31.9199 35.8967 31.9799 36.3834 32.0999C36.87 32.2133 37.3034 32.4066 37.6834 32.6799C38.0634 32.9466 38.37 33.3066 38.6034 33.7599C38.8367 34.2133 38.9534 34.7733 38.9534 35.4399ZM37.1734 35.4399C37.1734 35.0399 37.1067 34.7099 36.9734 34.4499C36.8467 34.1833 36.6734 33.9733 36.4534 33.8199C36.24 33.6599 35.9934 33.5466 35.7134 33.4799C35.44 33.4133 35.1567 33.3799 34.8634 33.3799H34.0134V37.5199H34.8234C35.13 37.5199 35.4234 37.4866 35.7034 37.4199C35.99 37.3466 36.24 37.2299 36.4534 37.0699C36.6734 36.9099 36.8467 36.6966 36.9734 36.4299C37.1067 36.1633 37.1734 35.8333 37.1734 35.4399Z" fill="white"/>
<path d="M55.3425 68.0003L53.8445 65.8583L52.3045 68.0003H49.6445L52.4305 64.3463L49.9105 61.0283H52.5845L53.8865 62.8903L55.2025 61.0283H57.7925L55.2865 64.3463L58.0445 68.0003H55.3425Z" fill="white"/>
<path d="M66.161 65.1163C66.161 65.6576 66.049 66.1289 65.825 66.5303C65.6104 66.9223 65.3257 67.2489 64.971 67.5103C64.6164 67.7623 64.215 67.9489 63.767 68.0703C63.3284 68.2009 62.8804 68.2663 62.423 68.2663C61.975 68.2663 61.5364 68.2149 61.107 68.1123C60.687 68.0096 60.2997 67.8556 59.945 67.6503C59.5997 67.4356 59.2964 67.1649 59.035 66.8383C58.7737 66.5023 58.5777 66.1009 58.447 65.6343L60.631 65.0603C60.7244 65.3869 60.9157 65.6763 61.205 65.9283C61.4944 66.1709 61.863 66.2923 62.311 66.2923C62.479 66.2923 62.647 66.2689 62.815 66.2223C62.9924 66.1756 63.1464 66.1056 63.277 66.0123C63.417 65.9096 63.529 65.7789 63.613 65.6203C63.7064 65.4616 63.753 65.2656 63.753 65.0323C63.753 64.7803 63.6924 64.5703 63.571 64.4023C63.459 64.2343 63.305 64.1036 63.109 64.0103C62.9224 63.9076 62.7077 63.8376 62.465 63.8003C62.2224 63.7536 61.9797 63.7303 61.737 63.7303H61.107V62.0083H61.793C62.017 62.0083 62.2317 61.9943 62.437 61.9663C62.6424 61.9289 62.8244 61.8683 62.983 61.7843C63.151 61.6909 63.2817 61.5696 63.375 61.4203C63.4777 61.2709 63.529 61.0749 63.529 60.8323C63.529 60.4776 63.403 60.2069 63.151 60.0203C62.899 59.8336 62.6097 59.7403 62.283 59.7403C61.947 59.7403 61.653 59.8429 61.401 60.0483C61.1584 60.2443 60.9997 60.5103 60.925 60.8463L58.741 60.3423C58.8624 59.9223 59.0444 59.5583 59.287 59.2503C59.5297 58.9329 59.8144 58.6716 60.141 58.4663C60.477 58.2516 60.841 58.0929 61.233 57.9903C61.625 57.8783 62.0264 57.8223 62.437 57.8223C62.8757 57.8223 63.3004 57.8783 63.711 57.9903C64.131 58.1023 64.5044 58.2749 64.831 58.5083C65.1577 58.7416 65.419 59.0356 65.615 59.3903C65.8204 59.7356 65.923 60.1463 65.923 60.6223C65.923 61.1729 65.7644 61.6396 65.447 62.0223C65.139 62.3956 64.7424 62.6476 64.257 62.7783V62.8203C64.537 62.8856 64.7937 62.9929 65.027 63.1423C65.2604 63.2823 65.461 63.4549 65.629 63.6603C65.797 63.8563 65.9277 64.0803 66.021 64.3323C66.1144 64.5749 66.161 64.8363 66.161 65.1163Z" fill="white"/>
</svg>
