<svg width="82" height="93" viewBox="0 0 82 93" fill="none" xmlns="http://www.w3.org/2000/svg">
<circle cx="15" cy="15" r="15" fill="#330081"/>
<path d="M14.4366 20V12.72L12.5886 14.148L11.3706 12.482L14.6326 10.088H16.7886V20H14.4366Z" fill="white"/>
<path d="M82 45C82 53.2843 75.2843 60 67 60C58.7157 60 52 53.2843 52 45C52 36.7157 58.7157 30 67 30C75.2843 30 82 36.7157 82 45Z" fill="#00CECE"/>
<path d="M63.4266 50V48.04L67.2906 44.54C67.5333 44.3067 67.7293 44.0687 67.8786 43.826C68.0279 43.5833 68.1026 43.3127 68.1026 43.014C68.1026 42.6593 67.9906 42.3747 67.7666 42.16C67.5426 41.936 67.2439 41.824 66.8706 41.824C66.4786 41.824 66.1566 41.964 65.9046 42.244C65.6619 42.5147 65.5173 42.874 65.4706 43.322L63.2166 43.014C63.2726 42.51 63.4079 42.062 63.6226 41.67C63.8466 41.278 64.1266 40.9467 64.4626 40.676C64.7986 40.396 65.1813 40.186 65.6106 40.046C66.0493 39.8967 66.5113 39.822 66.9966 39.822C67.4539 39.822 67.8973 39.8827 68.3266 40.004C68.7559 40.1253 69.1386 40.312 69.4746 40.564C69.8106 40.816 70.0766 41.1333 70.2726 41.516C70.4779 41.8987 70.5806 42.3467 70.5806 42.86C70.5806 43.2147 70.5339 43.5367 70.4406 43.826C70.3473 44.106 70.2166 44.3673 70.0486 44.61C69.8899 44.8527 69.7033 45.0813 69.4886 45.296C69.2833 45.5013 69.0686 45.7067 68.8446 45.912L66.5486 47.956H70.5946V50H63.4266Z" fill="white"/>
<circle cx="15" cy="78" r="15" fill="#905AE2"/>
<line x1="33.177" y1="25.4429" x2="46.814" y2="34.9558" stroke="#4650D4" stroke-width="1.5" stroke-linecap="round" stroke-linejoin="round" stroke-dasharray="5 5"/>
<line x1="35.3188" y1="68.3269" x2="48.9556" y2="58.8137" stroke="#4650D4" stroke-width="1.5" stroke-linecap="round" stroke-linejoin="round" stroke-dasharray="5 5"/>
<path d="M18.6359 80.1163C18.6359 80.6576 18.5239 81.1289 18.2999 81.5303C18.0852 81.9223 17.8005 82.2489 17.4459 82.5103C17.0912 82.7623 16.6899 82.9489 16.2419 83.0703C15.8032 83.2009 15.3552 83.2663 14.8979 83.2663C14.4499 83.2663 14.0112 83.2149 13.5819 83.1123C13.1619 83.0096 12.7745 82.8556 12.4199 82.6503C12.0745 82.4356 11.7712 82.1649 11.5099 81.8383C11.2485 81.5023 11.0525 81.1009 10.9219 80.6343L13.1059 80.0603C13.1992 80.3869 13.3905 80.6763 13.6799 80.9283C13.9692 81.1709 14.3379 81.2923 14.7859 81.2923C14.9539 81.2923 15.1219 81.2689 15.2899 81.2223C15.4672 81.1756 15.6212 81.1056 15.7519 81.0123C15.8919 80.9096 16.0039 80.7789 16.0879 80.6203C16.1812 80.4616 16.2279 80.2656 16.2279 80.0323C16.2279 79.7803 16.1672 79.5703 16.0459 79.4023C15.9339 79.2343 15.7799 79.1036 15.5839 79.0103C15.3972 78.9076 15.1825 78.8376 14.9399 78.8003C14.6972 78.7536 14.4545 78.7303 14.2119 78.7303H13.5819V77.0083H14.2679C14.4919 77.0083 14.7065 76.9943 14.9119 76.9663C15.1172 76.9289 15.2992 76.8683 15.4579 76.7843C15.6259 76.6909 15.7565 76.5696 15.8499 76.4203C15.9525 76.2709 16.0039 76.0749 16.0039 75.8323C16.0039 75.4776 15.8779 75.2069 15.6259 75.0203C15.3739 74.8336 15.0845 74.7403 14.7579 74.7403C14.4219 74.7403 14.1279 74.8429 13.8759 75.0483C13.6332 75.2443 13.4745 75.5103 13.3999 75.8463L11.2159 75.3423C11.3372 74.9223 11.5192 74.5583 11.7619 74.2503C12.0045 73.9329 12.2892 73.6716 12.6159 73.4663C12.9519 73.2516 13.3159 73.0929 13.7079 72.9903C14.0999 72.8783 14.5012 72.8223 14.9119 72.8223C15.3505 72.8223 15.7752 72.8783 16.1859 72.9903C16.6059 73.1023 16.9792 73.2749 17.3059 73.5083C17.6325 73.7416 17.8939 74.0356 18.0899 74.3903C18.2952 74.7356 18.3979 75.1463 18.3979 75.6223C18.3979 76.1729 18.2392 76.6396 17.9219 77.0223C17.6139 77.3956 17.2172 77.6476 16.7319 77.7783V77.8203C17.0119 77.8856 17.2685 77.9929 17.5019 78.1423C17.7352 78.2823 17.9359 78.4549 18.1039 78.6603C18.2719 78.8563 18.4025 79.0803 18.4959 79.3323C18.5892 79.5749 18.6359 79.8363 18.6359 80.1163Z" fill="white"/>
</svg>
