<svg width="120" height="112" viewBox="0 0 120 112" fill="none" xmlns="http://www.w3.org/2000/svg">
<circle cx="28" cy="28" r="15" fill="#330081"/>
<path d="M27.4366 33V25.72L25.5886 27.148L24.3706 25.482L27.6326 23.088H29.7886V33H27.4366Z" fill="white"/>
<path d="M95 58C95 66.2843 88.2843 73 80 73C71.7157 73 65 66.2843 65 58C65 49.7157 71.7157 43 80 43C88.2843 43 95 49.7157 95 58Z" fill="#00CECE"/>
<path d="M76.4266 63V61.04L80.2906 57.54C80.5333 57.3067 80.7293 57.0687 80.8786 56.826C81.0279 56.5833 81.1026 56.3127 81.1026 56.014C81.1026 55.6593 80.9906 55.3747 80.7666 55.16C80.5426 54.936 80.2439 54.824 79.8706 54.824C79.4786 54.824 79.1566 54.964 78.9046 55.244C78.6619 55.5147 78.5173 55.874 78.4706 56.322L76.2166 56.014C76.2726 55.51 76.4079 55.062 76.6226 54.67C76.8466 54.278 77.1266 53.9467 77.4626 53.676C77.7986 53.396 78.1813 53.186 78.6106 53.046C79.0493 52.8967 79.5113 52.822 79.9966 52.822C80.4539 52.822 80.8973 52.8827 81.3266 53.004C81.7559 53.1253 82.1386 53.312 82.4746 53.564C82.8106 53.816 83.0766 54.1333 83.2726 54.516C83.4779 54.8987 83.5806 55.3467 83.5806 55.86C83.5806 56.2147 83.5339 56.5367 83.4406 56.826C83.3473 57.106 83.2166 57.3673 83.0486 57.61C82.8899 57.8527 82.7033 58.0813 82.4886 58.296C82.2833 58.5013 82.0686 58.7067 81.8446 58.912L79.5486 60.956H83.5946V63H76.4266Z" fill="white"/>
<circle cx="28" cy="91" r="15" fill="#905AE2"/>
<line x1="46.177" y1="38.4429" x2="59.814" y2="47.9558" stroke="#4650D4" stroke-width="1.5" stroke-linecap="round" stroke-linejoin="round" stroke-dasharray="5 5"/>
<line x1="48.3188" y1="81.3269" x2="61.9556" y2="71.8137" stroke="#4650D4" stroke-width="1.5" stroke-linecap="round" stroke-linejoin="round" stroke-dasharray="5 5"/>
<path d="M31.6359 93.1163C31.6359 93.6576 31.5239 94.1289 31.2999 94.5303C31.0852 94.9223 30.8005 95.2489 30.4459 95.5103C30.0912 95.7623 29.6899 95.9489 29.2419 96.0703C28.8032 96.2009 28.3552 96.2663 27.8979 96.2663C27.4499 96.2663 27.0112 96.2149 26.5819 96.1123C26.1619 96.0096 25.7745 95.8556 25.4199 95.6503C25.0745 95.4356 24.7712 95.1649 24.5099 94.8383C24.2485 94.5023 24.0525 94.1009 23.9219 93.6343L26.1059 93.0603C26.1992 93.3869 26.3905 93.6763 26.6799 93.9283C26.9692 94.1709 27.3379 94.2923 27.7859 94.2923C27.9539 94.2923 28.1219 94.2689 28.2899 94.2223C28.4672 94.1756 28.6212 94.1056 28.7519 94.0123C28.8919 93.9096 29.0039 93.7789 29.0879 93.6203C29.1812 93.4616 29.2279 93.2656 29.2279 93.0323C29.2279 92.7803 29.1672 92.5703 29.0459 92.4023C28.9339 92.2343 28.7799 92.1036 28.5839 92.0103C28.3972 91.9076 28.1825 91.8376 27.9399 91.8003C27.6972 91.7536 27.4545 91.7303 27.2119 91.7303H26.5819V90.0083H27.2679C27.4919 90.0083 27.7065 89.9943 27.9119 89.9663C28.1172 89.9289 28.2992 89.8683 28.4579 89.7843C28.6259 89.6909 28.7565 89.5696 28.8499 89.4203C28.9525 89.2709 29.0039 89.0749 29.0039 88.8323C29.0039 88.4776 28.8779 88.2069 28.6259 88.0203C28.3739 87.8336 28.0845 87.7403 27.7579 87.7403C27.4219 87.7403 27.1279 87.8429 26.8759 88.0483C26.6332 88.2443 26.4745 88.5103 26.3999 88.8463L24.2159 88.3423C24.3372 87.9223 24.5192 87.5583 24.7619 87.2503C25.0045 86.9329 25.2892 86.6716 25.6159 86.4663C25.9519 86.2516 26.3159 86.0929 26.7079 85.9903C27.0999 85.8783 27.5012 85.8223 27.9119 85.8223C28.3505 85.8223 28.7752 85.8783 29.1859 85.9903C29.6059 86.1023 29.9792 86.2749 30.3059 86.5083C30.6325 86.7416 30.8939 87.0356 31.0899 87.3903C31.2952 87.7356 31.3979 88.1463 31.3979 88.6223C31.3979 89.1729 31.2392 89.6396 30.9219 90.0223C30.6139 90.3956 30.2172 90.6476 29.7319 90.7783V90.8203C30.0119 90.8856 30.2685 90.9929 30.5019 91.1423C30.7352 91.2823 30.9359 91.4549 31.1039 91.6603C31.2719 91.8563 31.4025 92.0803 31.4959 92.3323C31.5892 92.5749 31.6359 92.8363 31.6359 93.1163Z" fill="white"/>
</svg>
