<svg width="120" height="112" viewBox="0 0 120 112" fill="none" xmlns="http://www.w3.org/2000/svg">
<path d="M59.5 44.5V44.5C59.5 48.9183 55.9183 52.5 51.5 52.5H41C35.4772 52.5 31 56.9772 31 62.5V83" stroke="#4650D4" stroke-width="1.5" stroke-linecap="round" stroke-linejoin="round"/>
<path d="M35.0312 79L31.0312 83L27.0312 79" stroke="#4650D4" stroke-width="1.5" stroke-linecap="round" stroke-linejoin="round"/>
<path d="M59.5 44.5V44.5C59.5 48.9183 63.0817 52.5 67.5 52.5H78.5C84.0228 52.5 88.5 56.9772 88.5 62.5V83" stroke="#4650D4" stroke-width="1.5" stroke-linecap="round" stroke-linejoin="round"/>
<path d="M84.4688 79L88.4688 83L92.4688 79" stroke="#4650D4" stroke-width="1.5" stroke-linecap="round" stroke-linejoin="round"/>
<rect x="43.6977" y="26.1406" width="22.3609" height="22.3609" rx="3.34532" transform="rotate(-45 43.6977 26.1406)" fill="#330081" stroke="#330081" stroke-width="2.36094"/>
<path d="M62.5005 30.4218L61.7305 28.4758H57.8945L57.1665 30.4218H54.5625L58.7205 20.5098H61.0445L65.1605 30.4218H62.5005ZM59.8405 23.1558L58.5805 26.5578H61.0725L59.8405 23.1558Z" fill="white"/>
<line x1="53.75" y1="95.25" x2="66.25" y2="95.25" stroke="#4650D4" stroke-width="1.5" stroke-linecap="round" stroke-linejoin="round"/>
<rect x="22.9688" y="47" width="16" height="16" rx="8" fill="#00CECE" stroke="white" stroke-width="2"/>
<path d="M28.1484 55.0101L30.1084 56.9701L33.7484 53.3301" stroke="white" stroke-width="1.5" stroke-miterlimit="10" stroke-linecap="round" stroke-linejoin="round"/>
<rect x="80.6953" y="47.0078" width="16" height="16" rx="8" fill="#4650D4" stroke="white" stroke-width="2"/>
<g clip-path="url(#clip0)">
<path d="M90.7005 52.9727L86.6172 57.056" stroke="white" stroke-width="1.5" stroke-miterlimit="10" stroke-linecap="round" stroke-linejoin="round"/>
<path d="M90.7005 57.056L86.6172 52.9727" stroke="white" stroke-width="1.5" stroke-miterlimit="10" stroke-linecap="round" stroke-linejoin="round"/>
</g>
<rect x="13.3672" y="87" width="37" height="17" rx="8.5" fill="#905AE2"/>
<path d="M34.7583 96.7759C34.7583 97.1625 34.6816 97.4892 34.5283 97.7559C34.3749 98.0159 34.1716 98.2259 33.9183 98.3859C33.6649 98.5459 33.3749 98.6625 33.0483 98.7359C32.7283 98.8025 32.3983 98.8359 32.0583 98.8359H29.2383V91.7559H32.0583C32.3316 91.7559 32.6116 91.7859 32.8983 91.8459C33.1849 91.8992 33.4449 91.9959 33.6783 92.1359C33.9116 92.2692 34.1016 92.4525 34.2483 92.6859C34.3949 92.9192 34.4683 93.2159 34.4683 93.5759C34.4683 93.9692 34.3616 94.2959 34.1483 94.5559C33.9349 94.8092 33.6549 94.9925 33.3083 95.1059V95.1259C33.5083 95.1592 33.6949 95.2225 33.8683 95.3159C34.0483 95.4025 34.2016 95.5159 34.3283 95.6559C34.4616 95.7959 34.5649 95.9592 34.6383 96.1459C34.7183 96.3325 34.7583 96.5425 34.7583 96.7759ZM32.8183 93.8059C32.8183 93.5659 32.7249 93.3925 32.5383 93.2859C32.3583 93.1725 32.0883 93.1159 31.7283 93.1159H30.8883V94.5759H31.8083C32.1283 94.5759 32.3749 94.5125 32.5483 94.3859C32.7283 94.2525 32.8183 94.0592 32.8183 93.8059ZM33.0483 96.6159C33.0483 96.3225 32.9383 96.1192 32.7183 96.0059C32.4983 95.8925 32.2049 95.8359 31.8383 95.8359H30.8883V97.4559H31.8483C31.9816 97.4559 32.1183 97.4459 32.2583 97.4259C32.4049 97.3992 32.5349 97.3559 32.6483 97.2959C32.7683 97.2359 32.8649 97.1525 32.9383 97.0459C33.0116 96.9325 33.0483 96.7892 33.0483 96.6159Z" fill="white"/>
<rect x="69.3672" y="87" width="38" height="17" rx="8.5" fill="#905AE2"/>
<path d="M92.0522 97.8564C91.7389 98.2164 91.3522 98.5031 90.8922 98.7164C90.4322 98.9231 89.9022 99.0264 89.3022 99.0264C88.7555 99.0264 88.2489 98.9364 87.7822 98.7564C87.3222 98.5764 86.9222 98.3231 86.5822 97.9964C86.2422 97.6631 85.9755 97.2664 85.7822 96.8064C85.5889 96.3464 85.4922 95.8397 85.4922 95.2864C85.4922 94.7197 85.5889 94.2064 85.7822 93.7464C85.9822 93.2864 86.2555 92.8964 86.6022 92.5764C86.9489 92.2497 87.3555 91.9997 87.8222 91.8264C88.2889 91.6531 88.7922 91.5664 89.3322 91.5664C89.8322 91.5664 90.3222 91.6564 90.8022 91.8364C91.2889 92.0097 91.6822 92.2664 91.9822 92.6064L90.8222 93.7664C90.6622 93.5464 90.4522 93.3831 90.1922 93.2764C89.9322 93.1697 89.6655 93.1164 89.3922 93.1164C89.0922 93.1164 88.8155 93.1731 88.5622 93.2864C88.3155 93.3931 88.1022 93.5431 87.9222 93.7364C87.7422 93.9297 87.6022 94.1597 87.5022 94.4264C87.4022 94.6864 87.3522 94.9731 87.3522 95.2864C87.3522 95.6064 87.4022 95.8997 87.5022 96.1664C87.6022 96.4331 87.7389 96.6631 87.9122 96.8564C88.0922 97.0431 88.3055 97.1897 88.5522 97.2964C88.7989 97.4031 89.0689 97.4564 89.3622 97.4564C89.7022 97.4564 89.9989 97.3897 90.2522 97.2564C90.5055 97.1231 90.7089 96.9497 90.8622 96.7364L92.0522 97.8564Z" fill="white"/>
<rect x="59" y="44" width="1" height="3" rx="0.5" fill="#4650D4"/>
<defs>
<clipPath id="clip0">
<rect width="7" height="7" fill="white" transform="translate(85.1953 51.5078)"/>
</clipPath>
</defs>
</svg>
