<svg width="95" height="94" viewBox="0 0 95 94" fill="none" xmlns="http://www.w3.org/2000/svg">
<path d="M46.5 34.5V34.5C46.5 38.9183 42.9183 42.5 38.5 42.5H28C22.4772 42.5 18 46.9772 18 52.5V73" stroke="#4650D4" stroke-width="1.5" stroke-linecap="round" stroke-linejoin="round"/>
<path d="M22.0312 69L18.0312 73L14.0312 69" stroke="#4650D4" stroke-width="1.5" stroke-linecap="round" stroke-linejoin="round"/>
<path d="M46.5 34.5V34.5C46.5 38.9183 50.0817 42.5 54.5 42.5H65.5C71.0228 42.5 75.5 46.9772 75.5 52.5V73" stroke="#4650D4" stroke-width="1.5" stroke-linecap="round" stroke-linejoin="round"/>
<path d="M71.4688 69L75.4688 73L79.4688 69" stroke="#4650D4" stroke-width="1.5" stroke-linecap="round" stroke-linejoin="round"/>
<rect x="30.6977" y="16.1406" width="22.3609" height="22.3609" rx="3.34532" transform="rotate(-45 30.6977 16.1406)" fill="#330081" stroke="#330081" stroke-width="2.36094"/>
<path d="M49.5005 20.4218L48.7305 18.4758H44.8945L44.1665 20.4218H41.5625L45.7205 10.5098H48.0445L52.1605 20.4218H49.5005ZM46.8405 13.1558L45.5805 16.5578H48.0725L46.8405 13.1558Z" fill="white"/>
<line x1="40.75" y1="85.25" x2="53.25" y2="85.25" stroke="#4650D4" stroke-width="1.5" stroke-linecap="round" stroke-linejoin="round"/>
<rect x="9.96875" y="37" width="16" height="16" rx="8" fill="#00CECE" stroke="white" stroke-width="2"/>
<path d="M15.1484 45.0101L17.1084 46.9701L20.7484 43.3301" stroke="white" stroke-width="1.5" stroke-miterlimit="10" stroke-linecap="round" stroke-linejoin="round"/>
<rect x="67.6953" y="37.0078" width="16" height="16" rx="8" fill="#4650D4" stroke="white" stroke-width="2"/>
<g clip-path="url(#clip0)">
<path d="M77.7005 42.9727L73.6172 47.056" stroke="white" stroke-width="1.5" stroke-miterlimit="10" stroke-linecap="round" stroke-linejoin="round"/>
<path d="M77.7005 47.056L73.6172 42.9727" stroke="white" stroke-width="1.5" stroke-miterlimit="10" stroke-linecap="round" stroke-linejoin="round"/>
</g>
<rect x="0.367188" y="77" width="37" height="17" rx="8.5" fill="#905AE2"/>
<path d="M21.7583 86.7759C21.7583 87.1625 21.6816 87.4892 21.5283 87.7559C21.3749 88.0159 21.1716 88.2259 20.9183 88.3859C20.6649 88.5459 20.3749 88.6625 20.0483 88.7359C19.7283 88.8025 19.3983 88.8359 19.0583 88.8359H16.2383V81.7559H19.0583C19.3316 81.7559 19.6116 81.7859 19.8983 81.8459C20.1849 81.8992 20.4449 81.9959 20.6783 82.1359C20.9116 82.2692 21.1016 82.4525 21.2483 82.6859C21.3949 82.9192 21.4683 83.2159 21.4683 83.5759C21.4683 83.9692 21.3616 84.2959 21.1483 84.5559C20.9349 84.8092 20.6549 84.9925 20.3083 85.1059V85.1259C20.5083 85.1592 20.6949 85.2225 20.8683 85.3159C21.0483 85.4025 21.2016 85.5159 21.3283 85.6559C21.4616 85.7959 21.5649 85.9592 21.6383 86.1459C21.7183 86.3325 21.7583 86.5425 21.7583 86.7759ZM19.8183 83.8059C19.8183 83.5659 19.7249 83.3925 19.5383 83.2859C19.3583 83.1725 19.0883 83.1159 18.7283 83.1159H17.8883V84.5759H18.8083C19.1283 84.5759 19.3749 84.5125 19.5483 84.3859C19.7283 84.2525 19.8183 84.0592 19.8183 83.8059ZM20.0483 86.6159C20.0483 86.3225 19.9383 86.1192 19.7183 86.0059C19.4983 85.8925 19.2049 85.8359 18.8383 85.8359H17.8883V87.4559H18.8483C18.9816 87.4559 19.1183 87.4459 19.2583 87.4259C19.4049 87.3992 19.5349 87.3559 19.6483 87.2959C19.7683 87.2359 19.8649 87.1525 19.9383 87.0459C20.0116 86.9325 20.0483 86.7892 20.0483 86.6159Z" fill="white"/>
<rect x="56.3672" y="77" width="38" height="17" rx="8.5" fill="#905AE2"/>
<path d="M79.0522 87.8564C78.7389 88.2164 78.3522 88.5031 77.8922 88.7164C77.4322 88.9231 76.9022 89.0264 76.3022 89.0264C75.7555 89.0264 75.2489 88.9364 74.7822 88.7564C74.3222 88.5764 73.9222 88.3231 73.5822 87.9964C73.2422 87.6631 72.9755 87.2664 72.7822 86.8064C72.5889 86.3464 72.4922 85.8397 72.4922 85.2864C72.4922 84.7197 72.5889 84.2064 72.7822 83.7464C72.9822 83.2864 73.2555 82.8964 73.6022 82.5764C73.9489 82.2497 74.3555 81.9997 74.8222 81.8264C75.2889 81.6531 75.7922 81.5664 76.3322 81.5664C76.8322 81.5664 77.3222 81.6564 77.8022 81.8364C78.2889 82.0097 78.6822 82.2664 78.9822 82.6064L77.8222 83.7664C77.6622 83.5464 77.4522 83.3831 77.1922 83.2764C76.9322 83.1697 76.6655 83.1164 76.3922 83.1164C76.0922 83.1164 75.8155 83.1731 75.5622 83.2864C75.3155 83.3931 75.1022 83.5431 74.9222 83.7364C74.7422 83.9297 74.6022 84.1597 74.5022 84.4264C74.4022 84.6864 74.3522 84.9731 74.3522 85.2864C74.3522 85.6064 74.4022 85.8997 74.5022 86.1664C74.6022 86.4331 74.7389 86.6631 74.9122 86.8564C75.0922 87.0431 75.3055 87.1897 75.5522 87.2964C75.7989 87.4031 76.0689 87.4564 76.3622 87.4564C76.7022 87.4564 76.9989 87.3897 77.2522 87.2564C77.5055 87.1231 77.7089 86.9497 77.8622 86.7364L79.0522 87.8564Z" fill="white"/>
<defs>
<clipPath id="clip0">
<rect width="7" height="7" fill="white" transform="translate(72.1953 41.5078)"/>
</clipPath>
</defs>
</svg>
