<svg width="120" height="112" viewBox="0 0 120 112" fill="none" xmlns="http://www.w3.org/2000/svg">
<circle cx="54.5" cy="63.5" r="39.75" stroke="#4650D4" stroke-width="1.5"/>
<path d="M82.5 63.5C82.5 69.0379 80.8578 74.4514 77.7811 79.056C74.7045 83.6605 70.3315 87.2494 65.2151 89.3686C60.0988 91.4879 54.4689 92.0424 49.0375 90.962C43.606 89.8816 38.6169 87.2149 34.701 83.299C30.7851 79.3831 28.1184 74.394 27.038 68.9625C25.9576 63.5311 26.5121 57.9012 28.6314 52.7849C30.7506 47.6685 34.3395 43.2955 38.944 40.2189C43.5486 37.1422 48.9621 35.5 54.5 35.5" stroke="#00CECE" stroke-width="3" stroke-linecap="round" stroke-linejoin="round"/>
<circle cx="54.5" cy="63.5" r="18.75" stroke="#905AE2" stroke-width="1.5"/>
<circle cx="54.5" cy="63.5" r="8.5" fill="#330081"/>
<rect x="53" y="19" width="4" height="10" rx="2" fill="#905AE2"/>
<rect x="53" y="98" width="4" height="10" rx="2" fill="#905AE2"/>
<rect x="10.5" y="65" width="4" height="10" rx="2" transform="rotate(-90 10.5 65)" fill="#905AE2"/>
<rect x="88.5" y="65" width="4" height="10" rx="2" transform="rotate(-90 88.5 65)" fill="#905AE2"/>
<path d="M82.4124 22.3326L82.709 34.4957L71.0418 46.163L71.0418 31.7279C71.0418 31.4627 71.1471 31.2084 71.3347 31.0208L80.7056 21.6499C81.3272 21.0282 82.3909 21.4537 82.4124 22.3326Z" fill="#330081"/>
<path d="M54.4248 62.78L71.0418 46.163M71.0418 46.163L82.709 34.4957L82.4124 22.3326C82.3909 21.4537 81.3272 21.0282 80.7056 21.6499L71.3347 31.0208C71.1471 31.2084 71.0418 31.4627 71.0418 31.7279V46.163Z" stroke="#330081" stroke-width="1.5" stroke-linecap="round" stroke-linejoin="round"/>
<path d="M95.226 35.1462L83.0629 34.8496L71.3956 46.5168L85.8307 46.5168C86.0959 46.5168 86.3502 46.4115 86.5378 46.2239L95.9087 36.853C96.5304 36.2314 96.1049 35.1677 95.226 35.1462Z" fill="#330081"/>
<path d="M54.7786 63.1338L71.3956 46.5168M71.3956 46.5168L83.0629 34.8496L95.226 35.1462C96.1049 35.1677 96.5304 36.2314 95.9087 36.853L86.5378 46.2239C86.3502 46.4115 86.0959 46.5168 85.8307 46.5168H71.3956Z" stroke="#330081" stroke-width="1.5" stroke-linecap="round" stroke-linejoin="round"/>
</svg>
