<svg width="89" height="89" viewBox="0 0 89 89" fill="none" xmlns="http://www.w3.org/2000/svg">
<circle cx="44.5" cy="44.5" r="39.75" stroke="#4650D4" stroke-width="1.5"/>
<path d="M72.5 44.5C72.5 50.0379 70.8578 55.4514 67.7811 60.056C64.7045 64.6605 60.3315 68.2494 55.2151 70.3686C50.0988 72.4879 44.4689 73.0424 39.0375 71.962C33.606 70.8816 28.6169 68.2149 24.701 64.299C20.7851 60.3831 18.1184 55.394 17.038 49.9625C15.9576 44.5311 16.5121 38.9012 18.6314 33.7849C20.7506 28.6685 24.3395 24.2955 28.944 21.2189C33.5486 18.1422 38.9621 16.5 44.5 16.5" stroke="#00CECE" stroke-width="3" stroke-linecap="round" stroke-linejoin="round"/>
<circle cx="44.5" cy="44.5" r="18.75" stroke="#905AE2" stroke-width="1.5"/>
<circle cx="44.5" cy="44.5" r="8.5" fill="#330081"/>
<rect x="43" width="4" height="10" rx="2" fill="#905AE2"/>
<rect x="43" y="79" width="4" height="10" rx="2" fill="#905AE2"/>
<rect x="0.5" y="46" width="4" height="10" rx="2" transform="rotate(-90 0.5 46)" fill="#905AE2"/>
<rect x="78.5" y="46" width="4" height="10" rx="2" transform="rotate(-90 78.5 46)" fill="#905AE2"/>
<path d="M72.4124 3.33264L72.709 15.4957L61.0418 27.163L61.0418 12.7279C61.0418 12.4627 61.1471 12.2084 61.3347 12.0208L70.7056 2.64992C71.3272 2.02823 72.3909 2.45371 72.4124 3.33264Z" fill="#330081"/>
<path d="M44.4248 43.78L61.0418 27.163M61.0418 27.163L72.709 15.4957L72.4124 3.33264C72.3909 2.45371 71.3272 2.02823 70.7056 2.64992L61.3347 12.0208C61.1471 12.2084 61.0418 12.4627 61.0418 12.7279V27.163Z" stroke="#330081" stroke-width="1.5" stroke-linecap="round" stroke-linejoin="round"/>
<path d="M85.226 16.1462L73.0629 15.8496L61.3956 27.5168L75.8307 27.5168C76.0959 27.5168 76.3502 27.4115 76.5378 27.2239L85.9087 17.853C86.5304 17.2314 86.1049 16.1677 85.226 16.1462Z" fill="#330081"/>
<path d="M44.7786 44.1338L61.3956 27.5168M61.3956 27.5168L73.0629 15.8496L85.226 16.1462C86.1049 16.1677 86.5304 17.2314 85.9087 17.853L76.5378 27.2239C76.3502 27.4115 76.0959 27.5168 75.8307 27.5168H61.3956Z" stroke="#330081" stroke-width="1.5" stroke-linecap="round" stroke-linejoin="round"/>
</svg>
