<svg width="128" height="45" fill="none" xmlns="http://www.w3.org/2000/svg"><path fill-rule="evenodd" clip-rule="evenodd" d="M16.411 10.896a2.218 2.218 0 012.25 0l5.665 3.332c1.084.637 1.084 2.215 0 2.852l-5.664 3.331a2.218 2.218 0 01-2.25 0l-2.218-1.304a1.055 1.055 0 01-.375-1.437c.29-.5.928-.67 1.425-.378l2.218 1.304a.148.148 0 00.15 0l5.003-2.942-5.003-2.942a.148.148 0 00-.15 0l-5.956 3.502a.15.15 0 00-.074.13v7.025a.15.15 0 00.074.13l5.956 3.502a.148.148 0 00.15 0l6.546-3.85a1.038 1.038 0 011.425.379c.29.5.122 1.144-.375 1.437l-6.546 3.85a2.218 2.218 0 01-2.25 0l-5.956-3.503a2.255 2.255 0 01-1.108-1.945v-7.026c0-.8.422-1.54 1.108-1.944l5.955-3.502z" fill="#257DFD"/><path fill-rule="evenodd" clip-rule="evenodd" d="M59.02 20.86a.122.122 0 01-.008.006c-.237.184-.487.285-.747.285H46.797v2.982c0 .73.608 1.507 1.91 2.322 1.294.786 2.417 1.168 3.373 1.168 1.322 0 2.715-.384 4.88-1.533.275-.149.48-.259.748-.335a.816.816 0 01.307-.034c.19.02.51.104.708.429.298.485.106.904.097.92-.273.51-1.29.992-1.392 1.04-2.37 1.238-3.79 1.585-5.37 1.585-1.378 0-2.93-.532-4.655-1.574-1.691-1.041-2.594-2.151-2.594-3.342v-9.056c0-1.122.924-2.208 2.64-3.27 1.724-1.066 3.277-1.61 4.655-1.61 1.376 0 2.93.531 4.654 1.574 1.717 1.038 2.64 2.124 2.64 3.27v4.553c0 .216-.156.424-.378.62zm-10.237-6.847c-.651.395-1.153.749-1.49 1.092-.337.343-.496.662-.496.991v3.117H57.41V16.06c0-.68-.482-1.29-1.787-2.083-1.293-.786-2.432-1.168-3.42-1.168-.987 0-2.125.393-3.42 1.203h-.001zm25.686-.36h-.002c-1.295-.786-2.418-1.168-3.374-1.168-.988 0-2.127.382-3.42 1.168-.656.398-1.13.709-1.443 1.014-.306.3-.444.581-.444.926v8.323c0 .712.596 1.623 1.885 2.406 1.334.767 2.571 1.26 3.524 1.26.916 0 1.93-.5 3.274-1.296 1.323-.785 1.931-1.684 1.931-2.37v-8.323c0-.344-.14-.625-.454-.925-.32-.305-.806-.616-1.477-1.014zm1.28 14.214h-.002c-1.722 1.041-3.174 1.574-4.552 1.574-1.683 0-3.546-.745-5.409-2.213v7.053l.001.043v.969a.992.992 0 01-1.574.806.992.992 0 01-.413-.806v-.774a.652.652 0 01-.002-.053V15.434c0-1.123.925-2.197 2.64-3.234 1.725-1.066 3.278-1.61 4.655-1.61 1.407 0 2.96.531 4.654 1.574 1.718 1.038 2.641 2.124 2.641 3.27v9.2c0 .55-.234 1.095-.677 1.63-.442.536-1.1 1.069-1.963 1.603zm9.46-15.703h.002c1.725-1.043 3.293-1.574 4.7-1.574s2.96.53 4.654 1.573c1.719 1.015 2.641 2.1 2.641 3.27v9.165c0 1.122-.924 2.208-2.64 3.269-1.725 1.043-3.278 1.574-4.655 1.574-1.376 0-2.93-.531-4.654-1.573v-.001c-1.717-1.061-2.64-2.147-2.64-3.27v-9.163c0-1.145.905-2.231 2.593-3.27zm8.078 1.454l-.002-.001c-1.294-.786-2.417-1.168-3.374-1.168-.988 0-2.127.382-3.42 1.168-1.302.79-1.887 1.544-1.887 2.25v8.196c0 .706.585 1.46 1.887 2.25 1.293.786 2.432 1.168 3.42 1.168.957 0 2.08-.382 3.374-1.168h.002c1.334-.792 1.931-1.546 1.931-2.25v-8.196c0-.704-.597-1.458-1.931-2.25zm18.261.107l-.002-.002c-1.236-.788-2.248-1.166-3.044-1.166-.798 0-1.811.367-3.047 1.131-1.238.766-1.794 1.496-1.794 2.179v11.54l.001.029v.969a.994.994 0 01-1.987 0v-.915a.686.686 0 01-.002-.046V15.326c0-1.075.893-2.125 2.546-3.161 1.659-1.04 3.089-1.575 4.283-1.575.965 0 2.001.298 3.106.884 1.05.557 1.96 1.214 2.727 1.973.741-.736 1.652-1.382 2.73-1.938 1.132-.607 2.153-.92 3.059-.92 1.285 0 2.746.534 4.376 1.576 1.624 1.014 2.499 2.064 2.499 3.16V28.42a.994.994 0 01-1.987 0v-.934l-.001-.04V15.866c0-.683-.556-1.413-1.795-2.179-1.235-.763-2.263-1.131-3.092-1.131-.829 0-1.842.367-3.045 1.13-1.206.766-1.749 1.495-1.749 2.18v12.552a.993.993 0 01-1.987 0v-.931l-.001-.044V15.867c0-.658-.554-1.375-1.794-2.143z" fill="#3C4A63"/><path d="M112.645 37.893c-.498-.759-1.227-1.138-2.188-1.138-.811 0-1.505.299-2.073.885a2.967 2.967 0 00-.857 2.138c0 .839.29 1.563.857 2.15a2.777 2.777 0 002.073.873c.961 0 1.69-.38 2.188-1.138v.989h1.008v-8.047h-1.008v3.288zm-2.061 3.942c-.579 0-1.065-.195-1.459-.586a2.014 2.014 0 01-.59-1.471c0-.586.197-1.069.59-1.46.394-.402.88-.598 1.459-.598.591 0 1.077.196 1.471.598.393.391.59.874.59 1.46s-.197 1.069-.59 1.471c-.394.391-.88.586-1.471.586zM116.267 38.456c0-.494.464-.77 1.031-.77.614 0 1.031.241 1.239.736l.845-.472c-.37-.747-1.146-1.195-2.084-1.195-.591 0-1.077.16-1.471.483a1.547 1.547 0 00-.578 1.23c0 1.218 1.181 1.517 2.095 1.758.637.15 1.147.403 1.147.85 0 .541-.487.782-1.147.782-.706 0-1.25-.344-1.435-.896l-.869.494c.336.816 1.181 1.345 2.304 1.345.637 0 1.147-.161 1.552-.471.405-.31.614-.736.614-1.253.011-1.23-1.193-1.563-2.096-1.759-.637-.172-1.147-.414-1.147-.862zM124.13 36.755c-.961 0-1.691.38-2.189 1.138v-.989h-1.007v8.046h1.007v-3.287c.498.759 1.228 1.138 2.189 1.138.81 0 1.505-.287 2.072-.874.568-.586.857-1.31.857-2.15 0-.838-.289-1.55-.857-2.137a2.786 2.786 0 00-2.072-.885zm-.128 5.08a2.011 2.011 0 01-2.061-2.057c0-.586.197-1.069.591-1.46.393-.402.88-.598 1.47-.598.579 0 1.066.196 1.459.598.394.391.591.874.591 1.46a2.011 2.011 0 01-2.05 2.057z" fill="#905AE2"/><path fill-rule="evenodd" clip-rule="evenodd" d="M32.243 10.43L18.28 2.301a1.478 1.478 0 00-1.489 0L2.83 10.43c-.46.268-.745.764-.745 1.3v16.253c0 .537.284 1.032.745 1.3L16.79 37.41c.461.268 1.029.268 1.49 0l13.962-8.127c.46-.268.744-.764.744-1.3V11.73c0-.536-.283-1.032-.744-1.3zM19.323.482a3.548 3.548 0 00-3.574 0L1.787 8.609A3.608 3.608 0 000 11.73v16.253c0 1.287.681 2.477 1.787 3.12l13.962 8.127a3.548 3.548 0 003.574 0l13.962-8.127a3.607 3.607 0 001.787-3.12V11.73a3.608 3.608 0 00-1.787-3.12L19.323.483z" fill="url(#paint0_linear)"/><defs><linearGradient id="paint0_linear" x1="18.705" y1=".584" x2=".025" y2="30.091" gradientUnits="userSpaceOnUse"><stop stop-color="#BD8AFF"/><stop offset=".512" stop-color="#9356E0"/><stop offset="1" stop-color="#851DB6"/></linearGradient></defs></svg>