<svg width="128" height="45" viewBox="0 0 128 45" fill="none" xmlns="http://www.w3.org/2000/svg">
<path fill-rule="evenodd" clip-rule="evenodd" d="M16.4112 10.8965C17.1065 10.4876 17.9664 10.4876 18.6618 10.8965L24.3264 14.2277C25.4097 14.8648 25.4097 16.4428 24.3263 17.0799L18.6618 20.4111C17.9664 20.82 17.1065 20.82 16.4112 20.4111L14.1941 19.1073C13.6969 18.8149 13.5289 18.1715 13.819 17.6703C14.109 17.1691 14.7472 16.9998 15.2443 17.2922L17.4615 18.596C17.5078 18.6232 17.5651 18.6232 17.6115 18.596L22.6147 15.6538L17.6115 12.7116C17.5651 12.6844 17.5078 12.6844 17.4615 12.7116L11.5059 16.2138C11.4602 16.2407 11.4321 16.2901 11.4321 16.3435V23.3694C11.4321 23.4228 11.4602 23.4722 11.5059 23.4991L17.4615 27.0013C17.5078 27.0286 17.5651 27.0286 17.6115 27.0013L24.1579 23.1516C24.6551 22.8592 25.2933 23.0285 25.5833 23.5297C25.8733 24.0309 25.7054 24.6743 25.2082 24.9667L18.6618 28.8164C17.9664 29.2253 17.1065 29.2253 16.4112 28.8164L10.4557 25.3142C9.76955 24.9107 9.34766 24.1702 9.34766 23.3694V16.3435C9.34766 15.5427 9.76955 14.8022 10.4557 14.3987L16.4112 10.8965Z" fill="white"/>
<path fill-rule="evenodd" clip-rule="evenodd" d="M59.0202 20.8597C59.0177 20.862 59.0151 20.8641 59.0124 20.8662C58.7749 21.0498 58.5249 21.1509 58.2648 21.1509H46.7967V24.1327C46.7967 24.8627 47.405 25.6403 48.7069 26.4551C50.0012 27.241 51.1239 27.6228 52.08 27.6228C53.4024 27.6228 54.7948 27.2395 56.9608 26.0901C57.2354 25.9412 57.4405 25.8311 57.7075 25.7553C57.8075 25.7269 57.9112 25.7107 58.0146 25.7215C58.2044 25.7414 58.5242 25.8251 58.7233 26.15C59.0207 26.6353 58.8287 27.0539 58.8198 27.0704C58.5465 27.5804 57.5301 28.062 57.4281 28.1093C55.0587 29.3484 53.6385 29.6946 52.0571 29.6946C50.6804 29.6946 49.1277 29.1631 47.4033 28.121L47.4022 28.1204C45.7118 27.0799 44.8086 25.9696 44.8086 24.7785V15.723C44.8086 14.6008 45.7326 13.5146 47.4486 12.4535C49.1729 11.3872 50.7261 10.843 52.1037 10.843C53.4804 10.843 55.0332 11.3745 56.7575 12.4166C58.4753 13.4547 59.3989 14.5408 59.3989 15.6869V20.2395C59.3989 20.4559 59.2416 20.6642 59.0202 20.8597ZM48.783 14.0129C48.1318 14.4084 47.6304 14.7616 47.2927 15.1055C46.9563 15.4482 46.7967 15.7669 46.7967 16.0961V19.2131H57.4108V16.0601C57.4108 15.3806 56.929 14.7692 55.6243 13.9768C54.3306 13.1911 53.1918 12.8086 52.2037 12.8086C51.2168 12.8086 50.0786 13.2022 48.7848 14.0118L48.783 14.0129ZM74.4685 13.6538L74.4671 13.653C73.1724 12.8667 72.0494 12.4848 71.0931 12.4848C70.105 12.4848 68.9662 12.8672 67.6725 13.653C67.017 14.0511 66.5421 14.362 66.2299 14.6672C65.9242 14.9661 65.7861 15.2481 65.7861 15.593V23.9158C65.7861 24.6285 66.3819 25.5387 67.6709 26.322C69.0048 27.0891 70.2424 27.5825 71.1947 27.5825C72.1107 27.5825 73.1252 27.0828 74.4685 26.286C75.7923 25.5007 76.4001 24.6018 76.4001 23.9158V15.593C76.4001 15.2495 76.2594 14.9678 75.946 14.6685C75.6261 14.363 75.1396 14.0519 74.4685 13.6538ZM75.7482 27.867L75.7469 27.8678C74.0248 28.9085 72.5731 29.4414 71.1947 29.4414C69.5119 29.4414 67.649 28.6955 65.7861 27.2279V34.2805C65.7867 34.2948 65.787 34.3092 65.787 34.3236V35.2928C65.787 35.6122 65.6332 35.9121 65.3736 36.0986C65.0271 36.3476 64.56 36.3476 64.2134 36.0986C63.9539 35.9121 63.8 35.6122 63.8 35.2928V34.5188C63.7986 34.5015 63.798 34.484 63.798 34.4662V15.4337C63.798 14.3108 64.7228 13.2369 66.4387 12.1999C68.1627 11.1339 69.7157 10.5898 71.0931 10.5898C72.5005 10.5898 74.0532 11.121 75.7474 12.1637C77.4649 13.2017 78.3883 14.2877 78.3883 15.4337V24.6336C78.3883 25.1847 78.1543 25.7293 77.7112 26.2648C77.2688 26.7996 76.6118 27.333 75.7482 27.867ZM85.2097 12.164L85.2108 12.1634C86.9359 11.1209 88.504 10.5898 89.9113 10.5898C91.3185 10.5898 92.871 11.1209 94.5649 12.1633C96.2838 13.1781 97.2064 14.2639 97.2064 15.4337V24.5975C97.2064 25.7197 96.2824 26.8059 94.5664 27.867L94.5651 27.8678C92.8407 28.9099 91.288 29.4414 89.9113 29.4414C88.5346 29.4414 86.9819 28.9099 85.2575 27.8678L85.2561 27.867C83.5401 26.8059 82.6161 25.7197 82.6161 24.5975V15.4337C82.6161 14.2889 83.5222 13.2028 85.2097 12.164ZM93.2866 13.6177L93.2853 13.6169C91.9906 12.8306 90.8675 12.4487 89.9113 12.4487C88.9232 12.4487 87.7844 12.8312 86.4906 13.6169C85.1889 14.4075 84.6042 15.1614 84.6042 15.8667V24.0633C84.6042 24.7686 85.1889 25.5225 86.4906 26.3131C87.7844 27.0988 88.9232 27.4813 89.9113 27.4813C90.8675 27.4813 91.9906 27.0994 93.2853 26.3131L93.2866 26.3122C94.6207 25.5209 95.2183 24.7669 95.2183 24.0633V15.8667C95.2183 15.1631 94.6207 14.4091 93.2866 13.6177ZM111.548 13.7245L111.546 13.7234C110.31 12.935 109.298 12.557 108.502 12.557C107.704 12.557 106.691 12.924 105.455 13.6884C104.217 14.4544 103.661 15.1841 103.661 15.8667V27.4068C103.662 27.4165 103.662 27.4261 103.662 27.4358V28.405C103.662 28.7244 103.508 29.0242 103.248 29.2107C102.902 29.4598 102.435 29.4598 102.088 29.2107C101.829 29.0242 101.675 28.7244 101.675 28.405V27.4898C101.674 27.4748 101.673 27.4595 101.673 27.4441V15.3255C101.673 14.2515 102.566 13.2013 104.219 12.1647C105.878 11.1246 107.308 10.5898 108.502 10.5898C109.467 10.5898 110.503 10.8883 111.608 11.4736C112.658 12.0306 113.568 12.6883 114.335 13.4474C115.076 12.7107 115.987 12.0651 117.065 11.5095C118.197 10.9017 119.218 10.5898 120.124 10.5898C121.409 10.5898 122.87 11.1232 124.5 12.1652C126.124 13.1793 126.999 14.2292 126.999 15.3255V27.4343C126.999 27.4392 126.999 27.4441 126.999 27.449V28.4182C126.999 28.7376 126.845 29.0374 126.585 29.2239C126.239 29.473 125.772 29.473 125.425 29.2239C125.166 29.0374 125.012 28.7376 125.012 28.4182V27.4852C125.011 27.4716 125.011 27.4579 125.011 27.4441V15.8667C125.011 15.1841 124.455 14.4544 123.216 13.6884C121.981 12.9247 120.953 12.557 120.124 12.557C119.295 12.557 118.282 12.9244 117.079 13.6875C115.873 14.4526 115.33 15.1822 115.33 15.8667V27.4259C115.33 27.4336 115.33 27.4413 115.33 27.449V28.4182C115.33 28.7376 115.176 29.0374 114.917 29.2239C114.57 29.473 114.103 29.473 113.757 29.2239C113.497 29.0374 113.343 28.7376 113.343 28.4182V27.4876C113.342 27.4732 113.342 27.4587 113.342 27.4441V15.8667C113.342 15.2094 112.788 14.4917 111.548 13.7245Z" fill="white"/>
<path d="M112.645 37.8929C112.147 37.1342 111.418 36.7549 110.457 36.7549C109.646 36.7549 108.952 37.0538 108.384 37.64C107.817 38.2262 107.527 38.9388 107.527 39.7779C107.527 40.617 107.817 41.3412 108.384 41.9274C108.952 42.5136 109.646 42.801 110.457 42.801C111.418 42.801 112.147 42.4216 112.645 41.663V42.6515H113.653V34.6055H112.645V37.8929ZM110.584 41.8354C110.005 41.8354 109.519 41.64 109.125 41.2492C108.732 40.8469 108.535 40.3642 108.535 39.7779C108.535 39.1917 108.732 38.709 109.125 38.3182C109.519 37.9158 110.005 37.7204 110.584 37.7204C111.175 37.7204 111.661 37.9158 112.055 38.3182C112.448 38.709 112.645 39.1917 112.645 39.7779C112.645 40.3642 112.448 40.8469 112.055 41.2492C111.661 41.64 111.175 41.8354 110.584 41.8354Z" fill="white"/>
<path d="M116.267 38.4561C116.267 37.9618 116.731 37.686 117.298 37.686C117.912 37.686 118.329 37.9273 118.537 38.4216L119.382 37.9503C119.012 37.2032 118.236 36.7549 117.298 36.7549C116.707 36.7549 116.221 36.9158 115.827 37.2377C115.445 37.5595 115.249 37.9733 115.249 38.4676C115.249 39.686 116.43 39.9848 117.344 40.2262C117.981 40.3756 118.491 40.6285 118.491 41.0768C118.491 41.617 118.004 41.8584 117.344 41.8584C116.638 41.8584 116.094 41.5136 115.909 40.9619L115.04 41.4561C115.376 42.2722 116.221 42.801 117.344 42.801C117.981 42.801 118.491 42.64 118.896 42.3297C119.301 42.0193 119.51 41.5941 119.51 41.0768C119.521 39.8469 118.317 39.5136 117.414 39.3182C116.777 39.1457 116.267 38.9044 116.267 38.4561Z" fill="white"/>
<path d="M124.13 36.7549C123.169 36.7549 122.439 37.1342 121.941 37.8929V36.9043H120.934V44.9504H121.941V41.663C122.439 42.4216 123.169 42.801 124.13 42.801C124.94 42.801 125.635 42.5136 126.202 41.9274C126.77 41.3412 127.059 40.617 127.059 39.7779C127.059 38.9388 126.77 38.2262 126.202 37.64C125.635 37.0538 124.94 36.7549 124.13 36.7549ZM124.002 41.8354C123.412 41.8354 122.925 41.64 122.532 41.2492C122.138 40.8469 121.941 40.3642 121.941 39.7779C121.941 39.1917 122.138 38.709 122.532 38.3182C122.925 37.9158 123.412 37.7204 124.002 37.7204C124.581 37.7204 125.068 37.9158 125.461 38.3182C125.855 38.709 126.052 39.1917 126.052 39.7779C126.052 40.3642 125.855 40.8469 125.461 41.2492C125.068 41.64 124.581 41.8354 124.002 41.8354Z" fill="white"/>
<path fill-rule="evenodd" clip-rule="evenodd" d="M32.2429 10.4291L18.2803 2.30242C17.8197 2.0343 17.2521 2.0343 16.7915 2.30242L2.82886 10.4291C2.3682 10.6972 2.08443 11.1927 2.08443 11.7289V27.9823C2.08443 28.5185 2.3682 29.014 2.82886 29.2821L16.7915 37.4088C17.2521 37.6769 17.8197 37.6769 18.2803 37.4088L32.2429 29.2821C32.7036 29.014 32.9874 28.5185 32.9874 27.9823V11.7289C32.9874 11.1927 32.7036 10.6972 32.2429 10.4291ZM19.3225 0.482613C18.217 -0.160871 16.8548 -0.160871 15.7492 0.482613L1.78665 8.60928C0.681067 9.25277 0 10.442 0 11.7289V27.9823C0 29.2693 0.681067 30.4585 1.78665 31.1019L15.7492 39.2286C16.8548 39.8721 18.217 39.8721 19.3225 39.2286L33.2851 31.1019C34.3907 30.4585 35.0718 29.2693 35.0718 27.9823V11.7289C35.0718 10.442 34.3907 9.25277 33.2851 8.60928L19.3225 0.482613Z" fill="white"/>
</svg>
